{
	"asset":{
		"generator":"Khronos glTF Blender I/O v4.0.44",
		"version":"2.0"
	},
	"scene":0,
	"scenes":[
		{
			"name":"Scene",
			"nodes":[
				17
			]
		}
	],
	"nodes":[
		{
			"name":"Tail_03",
			"rotation":[
				-2.842170943040401e-14,
				1.2779196917247354e-13,
				5.126065115127213e-22,
				1
			],
			"scale":[
				0.9999999403953552,
				1,
				0.9999999403953552
			],
			"translation":[
				2.6387759707348357e-14,
				0.2652665972709656,
				2.0622454144358926e-07
			]
		},
		{
			"children":[
				0
			],
			"name":"Body.002_02",
			"rotation":[
				2.2351914097384906e-08,
				-1.7114540895590835e-08,
				-1.8370768197406486e-15,
				1
			],
			"scale":[
				0.9999999403953552,
				1,
				0.9999999403953552
			],
			"translation":[
				2.3063504366949497e-14,
				0.3178095519542694,
				2.501033975477185e-07
			]
		},
		{
			"name":"UnderFin.L_04",
			"rotation":[
				-0.18558599054813385,
				-0.6811637878417969,
				0.01771613210439682,
				0.7079971432685852
			],
			"scale":[
				1,
				1.0000001192092896,
				1
			],
			"translation":[
				0.061822887510061264,
				-0.015735790133476257,
				-0.015881886705756187
			]
		},
		{
			"name":"UnderFin.R_05",
			"rotation":[
				-0.18558596074581146,
				0.6811636686325073,
				-0.01771613396704197,
				0.7079972624778748
			],
			"scale":[
				0.9999999403953552,
				1,
				1
			],
			"translation":[
				-0.061822887510061264,
				-0.015735790133476257,
				-0.015881890431046486
			]
		},
		{
			"children":[
				1,
				2,
				3
			],
			"name":"Body.001_01",
			"rotation":[
				-4.1186439148077625e-08,
				-0.06355831027030945,
				-0.997978150844574,
				4.798593078447766e-09
			],
			"scale":[
				0.9999999403953552,
				0.9999998211860657,
				0.9999923706054688
			],
			"translation":[
				2.402364374123303e-16,
				5.029141902923584e-08,
				9.313225746154785e-09
			]
		},
		{
			"name":"Mouth_06",
			"rotation":[
				-0.002041202737018466,
				1.6836437453093822e-06,
				-3.1983202752883244e-09,
				0.9999979138374329
			],
			"scale":[
				0.9999999403953552,
				1,
				1
			],
			"translation":[
				-4.724309388137726e-09,
				0.19160005450248718,
				-0.040459103882312775
			]
		},
		{
			"children":[
				4,
				5
			],
			"name":"Head_00",
			"rotation":[
				2.7268116653544894e-08,
				0.7506200075149536,
				0.6607341170310974,
				5.667023472710753e-08
			],
			"scale":[
				0.9999999403953552,
				0.9999998807907104,
				1
			],
			"translation":[
				-5.440360162367597e-09,
				5.440355721475498e-09,
				0.15894220769405365
			]
		},
		{
			"children":[
				6
			],
			"name":"_rootJoint",
			"rotation":[
				-8.557136332854043e-09,
				1.7114272665708086e-08,
				-2.928983021579227e-16,
				1
			],
			"scale":[
				0.9999999403953552,
				0.9999999403953552,
				0.9999999403953552
			],
			"translation":[
				0,
				1.4901160305669237e-08,
				4.440892098500626e-16
			]
		},
		{
			"mesh":0,
			"name":"Object_10",
			"skin":0
		},
		{
			"name":"Object_8",
			"rotation":[
				-0.70710688829422,
				0,
				0,
				0.7071066498756409
			],
			"scale":[
				100,
				100.00001525878906,
				100.00001525878906
			]
		},
		{
			"mesh":1,
			"name":"Object_9",
			"skin":0
		},
		{
			"children":[
				8,
				9,
				10,
				7
			],
			"name":"Object_6"
		},
		{
			"children":[
				11
			],
			"name":"Armature",
			"rotation":[
				-0.70710688829422,
				0,
				0,
				0.7071066498756409
			],
			"scale":[
				100,
				99.99999237060547,
				99.99999237060547
			],
			"translation":[
				0,
				0,
				15.894224166870117
			]
		},
		{
			"name":"Barracuda",
			"rotation":[
				-0.70710688829422,
				0,
				0,
				0.7071066498756409
			],
			"scale":[
				100,
				99.99999237060547,
				99.99999237060547
			]
		},
		{
			"children":[
				12,
				13
			],
			"name":"RootNode"
		},
		{
			"children":[
				14
			],
			"name":"Object_2"
		},
		{
			"children":[
				15
			],
			"name":"barracuda.fbx",
			"rotation":[
				0.70710688829422,
				0,
				0,
				0.7071066498756409
			],
			"scale":[
				0.009999999776482582,
				0.010000000707805157,
				0.010000000707805157
			]
		},
		{
			"children":[
				16
			],
			"name":"Sketchfab_model",
			"rotation":[
				-0.7071067690849304,
				0,
				0,
				0.7071068286895752
			],
			"scale":[
				3.0325164794921875,
				3.0325164794921875,
				3.0325164794921875
			]
		}
	],
	"animations":[
		{
			"channels":[
				{
					"sampler":0,
					"target":{
						"node":7,
						"path":"translation"
					}
				},
				{
					"sampler":1,
					"target":{
						"node":7,
						"path":"rotation"
					}
				},
				{
					"sampler":2,
					"target":{
						"node":7,
						"path":"scale"
					}
				},
				{
					"sampler":3,
					"target":{
						"node":6,
						"path":"translation"
					}
				},
				{
					"sampler":4,
					"target":{
						"node":6,
						"path":"rotation"
					}
				},
				{
					"sampler":5,
					"target":{
						"node":6,
						"path":"scale"
					}
				},
				{
					"sampler":6,
					"target":{
						"node":4,
						"path":"translation"
					}
				},
				{
					"sampler":7,
					"target":{
						"node":4,
						"path":"rotation"
					}
				},
				{
					"sampler":8,
					"target":{
						"node":4,
						"path":"scale"
					}
				},
				{
					"sampler":9,
					"target":{
						"node":1,
						"path":"translation"
					}
				},
				{
					"sampler":10,
					"target":{
						"node":1,
						"path":"rotation"
					}
				},
				{
					"sampler":11,
					"target":{
						"node":1,
						"path":"scale"
					}
				},
				{
					"sampler":12,
					"target":{
						"node":0,
						"path":"translation"
					}
				},
				{
					"sampler":13,
					"target":{
						"node":0,
						"path":"rotation"
					}
				},
				{
					"sampler":14,
					"target":{
						"node":0,
						"path":"scale"
					}
				},
				{
					"sampler":15,
					"target":{
						"node":2,
						"path":"translation"
					}
				},
				{
					"sampler":16,
					"target":{
						"node":2,
						"path":"rotation"
					}
				},
				{
					"sampler":17,
					"target":{
						"node":2,
						"path":"scale"
					}
				},
				{
					"sampler":18,
					"target":{
						"node":3,
						"path":"translation"
					}
				},
				{
					"sampler":19,
					"target":{
						"node":3,
						"path":"rotation"
					}
				},
				{
					"sampler":20,
					"target":{
						"node":3,
						"path":"scale"
					}
				},
				{
					"sampler":21,
					"target":{
						"node":5,
						"path":"translation"
					}
				},
				{
					"sampler":22,
					"target":{
						"node":5,
						"path":"rotation"
					}
				},
				{
					"sampler":23,
					"target":{
						"node":5,
						"path":"scale"
					}
				}
			],
			"name":"Scene",
			"samplers":[
				{
					"input":13,
					"interpolation":"STEP",
					"output":14
				},
				{
					"input":13,
					"interpolation":"STEP",
					"output":15
				},
				{
					"input":13,
					"interpolation":"STEP",
					"output":16
				},
				{
					"input":13,
					"interpolation":"STEP",
					"output":17
				},
				{
					"input":13,
					"interpolation":"STEP",
					"output":18
				},
				{
					"input":13,
					"interpolation":"STEP",
					"output":19
				},
				{
					"input":13,
					"interpolation":"STEP",
					"output":20
				},
				{
					"input":21,
					"interpolation":"LINEAR",
					"output":22
				},
				{
					"input":13,
					"interpolation":"STEP",
					"output":23
				},
				{
					"input":13,
					"interpolation":"STEP",
					"output":24
				},
				{
					"input":21,
					"interpolation":"LINEAR",
					"output":25
				},
				{
					"input":13,
					"interpolation":"STEP",
					"output":26
				},
				{
					"input":13,
					"interpolation":"STEP",
					"output":27
				},
				{
					"input":21,
					"interpolation":"LINEAR",
					"output":28
				},
				{
					"input":13,
					"interpolation":"STEP",
					"output":29
				},
				{
					"input":13,
					"interpolation":"STEP",
					"output":30
				},
				{
					"input":21,
					"interpolation":"LINEAR",
					"output":31
				},
				{
					"input":13,
					"interpolation":"STEP",
					"output":32
				},
				{
					"input":13,
					"interpolation":"STEP",
					"output":33
				},
				{
					"input":21,
					"interpolation":"LINEAR",
					"output":34
				},
				{
					"input":13,
					"interpolation":"STEP",
					"output":35
				},
				{
					"input":13,
					"interpolation":"STEP",
					"output":36
				},
				{
					"input":21,
					"interpolation":"LINEAR",
					"output":37
				},
				{
					"input":13,
					"interpolation":"STEP",
					"output":38
				}
			]
		}
	],
	"materials":[
		{
			"doubleSided":true,
			"name":"Barracuda_M.02",
			"pbrMetallicRoughness":{
				"baseColorFactor":[
					0.011087600141763687,
					0.011087600141763687,
					0.011087600141763687,
					1
				],
				"metallicFactor":0,
				"roughnessFactor":0.3337152898311615
			}
		},
		{
			"doubleSided":true,
			"name":"Barracuda_M.01",
			"pbrMetallicRoughness":{
				"baseColorTexture":{
					"index":0
				},
				"metallicFactor":0.20571491122245789,
				"roughnessFactor":0.5897160768508911
			}
		}
	],
	"meshes":[
		{
			"name":"Barracuda_Barracuda_M.02_0",
			"primitives":[
				{
					"attributes":{
						"POSITION":0,
						"NORMAL":1,
						"TEXCOORD_0":2,
						"JOINTS_0":3,
						"WEIGHTS_0":4
					},
					"indices":5,
					"material":0
				}
			]
		},
		{
			"name":"Barracuda_Barracuda_M.01_0",
			"primitives":[
				{
					"attributes":{
						"POSITION":7,
						"NORMAL":8,
						"TEXCOORD_0":9,
						"JOINTS_0":10,
						"WEIGHTS_0":11
					},
					"indices":12,
					"material":1
				}
			]
		}
	],
	"textures":[
		{
			"sampler":0,
			"source":0
		}
	],
	"images":[
		{
			"mimeType":"image/png",
			"name":"Barracuda_M.01_baseColor",
			"uri":"Barracuda_M_01_baseColor.png"
		}
	],
	"skins":[
		{
			"inverseBindMatrices":6,
			"joints":[
				7,
				6,
				4,
				1,
				0,
				2,
				3,
				5
			],
			"name":"Object_6"
		}
	],
	"accessors":[
		{
			"bufferView":0,
			"componentType":5126,
			"count":1128,
			"max":[
				0.15186011791229248,
				1.3955186605453491,
				0.7823428511619568
			],
			"min":[
				-0.15185989439487457,
				-1.999498963356018,
				0.0664016529917717
			],
			"type":"VEC3"
		},
		{
			"bufferView":1,
			"componentType":5126,
			"count":1128,
			"type":"VEC3"
		},
		{
			"bufferView":2,
			"componentType":5126,
			"count":1128,
			"type":"VEC2"
		},
		{
			"bufferView":3,
			"componentType":5121,
			"count":1128,
			"type":"VEC4"
		},
		{
			"bufferView":4,
			"componentType":5126,
			"count":1128,
			"type":"VEC4"
		},
		{
			"bufferView":5,
			"componentType":5123,
			"count":1440,
			"type":"SCALAR"
		},
		{
			"bufferView":6,
			"componentType":5126,
			"count":8,
			"type":"MAT4"
		},
		{
			"bufferView":7,
			"componentType":5126,
			"count":1958,
			"max":[
				0.2739410996437073,
				1.4955379962921143,
				0.6859599947929382
			],
			"min":[
				-0.27394095063209534,
				-1.625698447227478,
				0.042065951973199844
			],
			"type":"VEC3"
		},
		{
			"bufferView":8,
			"componentType":5126,
			"count":1958,
			"type":"VEC3"
		},
		{
			"bufferView":9,
			"componentType":5126,
			"count":1958,
			"type":"VEC2"
		},
		{
			"bufferView":10,
			"componentType":5121,
			"count":1958,
			"type":"VEC4"
		},
		{
			"bufferView":11,
			"componentType":5126,
			"count":1958,
			"type":"VEC4"
		},
		{
			"bufferView":12,
			"componentType":5123,
			"count":2484,
			"type":"SCALAR"
		},
		{
			"bufferView":13,
			"componentType":5126,
			"count":2,
			"max":[
				3.9166666666666665
			],
			"min":[
				0.041666666666666664
			],
			"type":"SCALAR"
		},
		{
			"bufferView":14,
			"componentType":5126,
			"count":2,
			"type":"VEC3"
		},
		{
			"bufferView":15,
			"componentType":5126,
			"count":2,
			"type":"VEC4"
		},
		{
			"bufferView":16,
			"componentType":5126,
			"count":2,
			"type":"VEC3"
		},
		{
			"bufferView":17,
			"componentType":5126,
			"count":2,
			"type":"VEC3"
		},
		{
			"bufferView":18,
			"componentType":5126,
			"count":2,
			"type":"VEC4"
		},
		{
			"bufferView":19,
			"componentType":5126,
			"count":2,
			"type":"VEC3"
		},
		{
			"bufferView":20,
			"componentType":5126,
			"count":2,
			"type":"VEC3"
		},
		{
			"bufferView":21,
			"componentType":5126,
			"count":94,
			"max":[
				3.9166666666666665
			],
			"min":[
				0.041666666666666664
			],
			"type":"SCALAR"
		},
		{
			"bufferView":22,
			"componentType":5126,
			"count":94,
			"type":"VEC4"
		},
		{
			"bufferView":23,
			"componentType":5126,
			"count":2,
			"type":"VEC3"
		},
		{
			"bufferView":24,
			"componentType":5126,
			"count":2,
			"type":"VEC3"
		},
		{
			"bufferView":25,
			"componentType":5126,
			"count":94,
			"type":"VEC4"
		},
		{
			"bufferView":26,
			"componentType":5126,
			"count":2,
			"type":"VEC3"
		},
		{
			"bufferView":27,
			"componentType":5126,
			"count":2,
			"type":"VEC3"
		},
		{
			"bufferView":28,
			"componentType":5126,
			"count":94,
			"type":"VEC4"
		},
		{
			"bufferView":29,
			"componentType":5126,
			"count":2,
			"type":"VEC3"
		},
		{
			"bufferView":30,
			"componentType":5126,
			"count":2,
			"type":"VEC3"
		},
		{
			"bufferView":31,
			"componentType":5126,
			"count":94,
			"type":"VEC4"
		},
		{
			"bufferView":32,
			"componentType":5126,
			"count":2,
			"type":"VEC3"
		},
		{
			"bufferView":33,
			"componentType":5126,
			"count":2,
			"type":"VEC3"
		},
		{
			"bufferView":34,
			"componentType":5126,
			"count":94,
			"type":"VEC4"
		},
		{
			"bufferView":35,
			"componentType":5126,
			"count":2,
			"type":"VEC3"
		},
		{
			"bufferView":36,
			"componentType":5126,
			"count":2,
			"type":"VEC3"
		},
		{
			"bufferView":37,
			"componentType":5126,
			"count":94,
			"type":"VEC4"
		},
		{
			"bufferView":38,
			"componentType":5126,
			"count":2,
			"type":"VEC3"
		}
	],
	"bufferViews":[
		{
			"buffer":0,
			"byteLength":13536,
			"byteOffset":0,
			"target":34962
		},
		{
			"buffer":0,
			"byteLength":13536,
			"byteOffset":13536,
			"target":34962
		},
		{
			"buffer":0,
			"byteLength":9024,
			"byteOffset":27072,
			"target":34962
		},
		{
			"buffer":0,
			"byteLength":4512,
			"byteOffset":36096,
			"target":34962
		},
		{
			"buffer":0,
			"byteLength":18048,
			"byteOffset":40608,
			"target":34962
		},
		{
			"buffer":0,
			"byteLength":2880,
			"byteOffset":58656,
			"target":34963
		},
		{
			"buffer":0,
			"byteLength":512,
			"byteOffset":61536
		},
		{
			"buffer":0,
			"byteLength":23496,
			"byteOffset":62048,
			"target":34962
		},
		{
			"buffer":0,
			"byteLength":23496,
			"byteOffset":85544,
			"target":34962
		},
		{
			"buffer":0,
			"byteLength":15664,
			"byteOffset":109040,
			"target":34962
		},
		{
			"buffer":0,
			"byteLength":7832,
			"byteOffset":124704,
			"target":34962
		},
		{
			"buffer":0,
			"byteLength":31328,
			"byteOffset":132536,
			"target":34962
		},
		{
			"buffer":0,
			"byteLength":4968,
			"byteOffset":163864,
			"target":34963
		},
		{
			"buffer":0,
			"byteLength":8,
			"byteOffset":168832
		},
		{
			"buffer":0,
			"byteLength":24,
			"byteOffset":168840
		},
		{
			"buffer":0,
			"byteLength":32,
			"byteOffset":168864
		},
		{
			"buffer":0,
			"byteLength":24,
			"byteOffset":168896
		},
		{
			"buffer":0,
			"byteLength":24,
			"byteOffset":168920
		},
		{
			"buffer":0,
			"byteLength":32,
			"byteOffset":168944
		},
		{
			"buffer":0,
			"byteLength":24,
			"byteOffset":168976
		},
		{
			"buffer":0,
			"byteLength":24,
			"byteOffset":169000
		},
		{
			"buffer":0,
			"byteLength":376,
			"byteOffset":169024
		},
		{
			"buffer":0,
			"byteLength":1504,
			"byteOffset":169400
		},
		{
			"buffer":0,
			"byteLength":24,
			"byteOffset":170904
		},
		{
			"buffer":0,
			"byteLength":24,
			"byteOffset":170928
		},
		{
			"buffer":0,
			"byteLength":1504,
			"byteOffset":170952
		},
		{
			"buffer":0,
			"byteLength":24,
			"byteOffset":172456
		},
		{
			"buffer":0,
			"byteLength":24,
			"byteOffset":172480
		},
		{
			"buffer":0,
			"byteLength":1504,
			"byteOffset":172504
		},
		{
			"buffer":0,
			"byteLength":24,
			"byteOffset":174008
		},
		{
			"buffer":0,
			"byteLength":24,
			"byteOffset":174032
		},
		{
			"buffer":0,
			"byteLength":1504,
			"byteOffset":174056
		},
		{
			"buffer":0,
			"byteLength":24,
			"byteOffset":175560
		},
		{
			"buffer":0,
			"byteLength":24,
			"byteOffset":175584
		},
		{
			"buffer":0,
			"byteLength":1504,
			"byteOffset":175608
		},
		{
			"buffer":0,
			"byteLength":24,
			"byteOffset":177112
		},
		{
			"buffer":0,
			"byteLength":24,
			"byteOffset":177136
		},
		{
			"buffer":0,
			"byteLength":1504,
			"byteOffset":177160
		},
		{
			"buffer":0,
			"byteLength":24,
			"byteOffset":178664
		}
	],
	"samplers":[
		{
			"magFilter":9729,
			"minFilter":9987
		}
	],
	"buffers":[
		{
			"byteLength":178688,
			"uri":"scene.bin"
		}
	]
}
