{
	"asset":{
		"generator":"Khronos glTF Blender I/O v4.0.44",
		"version":"2.0"
	},
	"scene":0,
	"scenes":[
		{
			"name":"Scene",
			"nodes":[
				16
			]
		}
	],
	"nodes":[
		{
			"name":"Object_8",
			"rotation":[
				-0.7071069478988647,
				0,
				0,
				0.7071066498756409
			],
			"scale":[
				99.99999237060547,
				100.00000762939453,
				100.00000762939453
			]
		},
		{
			"name":"Tail_03",
			"rotation":[
				-4.476209505810402e-05,
				-2.1912997458239936e-11,
				3.875155751842385e-11,
				1
			],
			"scale":[
				1,
				1.0000001192092896,
				1.0000001192092896
			],
			"translation":[
				-7.416289804496046e-14,
				1.1923218965530396,
				2.9942020773887634e-07
			]
		},
		{
			"children":[
				1
			],
			"name":"Body.002_02",
			"rotation":[
				-0.0003175911551807076,
				-1.4239701329188392e-07,
				2.3000436277786918e-10,
				1
			],
			"scale":[
				1,
				0.9999999403953552,
				0.9999999403953552
			],
			"translation":[
				-2.026503964636106e-13,
				1.2655677795410156,
				3.1315721571445465e-07
			]
		},
		{
			"name":"UnderFin.L_04",
			"rotation":[
				-0.10689817368984222,
				0.03996497392654419,
				-0.3484462797641754,
				0.9303551912307739
			],
			"translation":[
				0.42896243929862976,
				0.19643503427505493,
				-0.3230167329311371
			]
		},
		{
			"name":"UnderFin.R_05",
			"rotation":[
				-0.10689803212881088,
				-0.03996444121003151,
				0.3484462797641754,
				0.9303551912307739
			],
			"scale":[
				1,
				0.9999998807907104,
				0.9999999403953552
			],
			"translation":[
				-0.42896270751953125,
				0.19643506407737732,
				-0.32301631569862366
			]
		},
		{
			"children":[
				2,
				3,
				4
			],
			"name":"Body.001_01",
			"rotation":[
				1.4768643552542926e-07,
				0.0325646698474884,
				-0.9994696378707886,
				6.34051033898686e-09
			],
			"scale":[
				1,
				0.9999995231628418,
				1.000004529953003
			],
			"translation":[
				-1.7763568394002505e-14,
				-6.484333425760269e-08,
				1.0943044692623971e-08
			]
		},
		{
			"name":"Mouth_06",
			"rotation":[
				-4.569735878590109e-08,
				0.9892242550849915,
				0.1464083045721054,
				6.64307890474447e-07
			],
			"scale":[
				1,
				1.0000003576278687,
				0.9999999403953552
			],
			"translation":[
				3.112049284936802e-07,
				0.631389319896698,
				-0.3301415741443634
			]
		},
		{
			"children":[
				5,
				6
			],
			"name":"Head_00",
			"rotation":[
				-0.7290534377098083,
				3.0079081625444815e-07,
				-3.1991629612093675e-07,
				0.6844568252563477
			],
			"translation":[
				6.720380252289715e-09,
				0.009132699109613895,
				-0.045784786343574524
			]
		},
		{
			"children":[
				7
			],
			"name":"_rootJoint",
			"rotation":[
				-8.55714432645982e-09,
				1.7114272665708086e-08,
				-2.928982756881431e-16,
				1
			]
		},
		{
			"mesh":0,
			"name":"Object_9",
			"skin":0
		},
		{
			"children":[
				0,
				9,
				8
			],
			"name":"Object_6"
		},
		{
			"children":[
				10
			],
			"name":"Armature",
			"rotation":[
				-0.70710688829422,
				0,
				0,
				0.7071066498756409
			],
			"scale":[
				12.462620735168457,
				12.46261978149414,
				12.46261978149414
			]
		},
		{
			"name":"Sebastes",
			"rotation":[
				-0.70710688829422,
				0,
				0,
				0.7071066498756409
			],
			"scale":[
				100,
				99.99999237060547,
				99.99999237060547
			]
		},
		{
			"children":[
				11,
				12
			],
			"name":"RootNode"
		},
		{
			"children":[
				13
			],
			"name":"Object_2"
		},
		{
			"children":[
				14
			],
			"name":"Sebastes.fbx",
			"rotation":[
				0.70710688829422,
				0,
				0,
				0.7071066498756409
			],
			"scale":[
				0.009999999776482582,
				0.010000000707805157,
				0.010000000707805157
			]
		},
		{
			"children":[
				15
			],
			"name":"Sketchfab_model",
			"rotation":[
				-0.70710688829422,
				0,
				0,
				0.7071066498756409
			]
		}
	],
	"animations":[
		{
			"channels":[
				{
					"sampler":0,
					"target":{
						"node":8,
						"path":"translation"
					}
				},
				{
					"sampler":1,
					"target":{
						"node":8,
						"path":"rotation"
					}
				},
				{
					"sampler":2,
					"target":{
						"node":8,
						"path":"scale"
					}
				},
				{
					"sampler":3,
					"target":{
						"node":7,
						"path":"translation"
					}
				},
				{
					"sampler":4,
					"target":{
						"node":7,
						"path":"rotation"
					}
				},
				{
					"sampler":5,
					"target":{
						"node":7,
						"path":"scale"
					}
				},
				{
					"sampler":6,
					"target":{
						"node":5,
						"path":"translation"
					}
				},
				{
					"sampler":7,
					"target":{
						"node":5,
						"path":"rotation"
					}
				},
				{
					"sampler":8,
					"target":{
						"node":5,
						"path":"scale"
					}
				},
				{
					"sampler":9,
					"target":{
						"node":2,
						"path":"translation"
					}
				},
				{
					"sampler":10,
					"target":{
						"node":2,
						"path":"rotation"
					}
				},
				{
					"sampler":11,
					"target":{
						"node":2,
						"path":"scale"
					}
				},
				{
					"sampler":12,
					"target":{
						"node":1,
						"path":"translation"
					}
				},
				{
					"sampler":13,
					"target":{
						"node":1,
						"path":"rotation"
					}
				},
				{
					"sampler":14,
					"target":{
						"node":1,
						"path":"scale"
					}
				},
				{
					"sampler":15,
					"target":{
						"node":3,
						"path":"translation"
					}
				},
				{
					"sampler":16,
					"target":{
						"node":3,
						"path":"rotation"
					}
				},
				{
					"sampler":17,
					"target":{
						"node":3,
						"path":"scale"
					}
				},
				{
					"sampler":18,
					"target":{
						"node":4,
						"path":"translation"
					}
				},
				{
					"sampler":19,
					"target":{
						"node":4,
						"path":"rotation"
					}
				},
				{
					"sampler":20,
					"target":{
						"node":4,
						"path":"scale"
					}
				},
				{
					"sampler":21,
					"target":{
						"node":6,
						"path":"translation"
					}
				},
				{
					"sampler":22,
					"target":{
						"node":6,
						"path":"rotation"
					}
				},
				{
					"sampler":23,
					"target":{
						"node":6,
						"path":"scale"
					}
				}
			],
			"name":"Scene",
			"samplers":[
				{
					"input":7,
					"interpolation":"STEP",
					"output":8
				},
				{
					"input":7,
					"interpolation":"STEP",
					"output":9
				},
				{
					"input":7,
					"interpolation":"STEP",
					"output":10
				},
				{
					"input":7,
					"interpolation":"STEP",
					"output":11
				},
				{
					"input":7,
					"interpolation":"STEP",
					"output":12
				},
				{
					"input":7,
					"interpolation":"STEP",
					"output":13
				},
				{
					"input":7,
					"interpolation":"STEP",
					"output":14
				},
				{
					"input":15,
					"interpolation":"LINEAR",
					"output":16
				},
				{
					"input":7,
					"interpolation":"STEP",
					"output":17
				},
				{
					"input":7,
					"interpolation":"LINEAR",
					"output":18
				},
				{
					"input":15,
					"interpolation":"LINEAR",
					"output":19
				},
				{
					"input":7,
					"interpolation":"STEP",
					"output":20
				},
				{
					"input":7,
					"interpolation":"LINEAR",
					"output":21
				},
				{
					"input":15,
					"interpolation":"LINEAR",
					"output":22
				},
				{
					"input":7,
					"interpolation":"STEP",
					"output":23
				},
				{
					"input":15,
					"interpolation":"LINEAR",
					"output":24
				},
				{
					"input":15,
					"interpolation":"LINEAR",
					"output":25
				},
				{
					"input":7,
					"interpolation":"STEP",
					"output":26
				},
				{
					"input":15,
					"interpolation":"LINEAR",
					"output":27
				},
				{
					"input":15,
					"interpolation":"LINEAR",
					"output":28
				},
				{
					"input":7,
					"interpolation":"STEP",
					"output":29
				},
				{
					"input":7,
					"interpolation":"STEP",
					"output":30
				},
				{
					"input":15,
					"interpolation":"LINEAR",
					"output":31
				},
				{
					"input":7,
					"interpolation":"STEP",
					"output":32
				}
			]
		}
	],
	"materials":[
		{
			"doubleSided":true,
			"name":"Sebaste_M",
			"pbrMetallicRoughness":{
				"baseColorTexture":{
					"index":0
				},
				"metallicFactor":0.7481927275657654,
				"roughnessFactor":0.4102839231491089
			}
		}
	],
	"meshes":[
		{
			"name":"Sebastes_Sebaste_M_0",
			"primitives":[
				{
					"attributes":{
						"POSITION":0,
						"NORMAL":1,
						"TEXCOORD_0":2,
						"JOINTS_0":3,
						"WEIGHTS_0":4
					},
					"indices":5,
					"material":0
				}
			]
		}
	],
	"textures":[
		{
			"sampler":0,
			"source":0
		}
	],
	"images":[
		{
			"mimeType":"image/png",
			"name":"Sebaste_M_baseColor",
			"uri":"Sebaste_M_baseColor.png"
		}
	],
	"skins":[
		{
			"inverseBindMatrices":6,
			"joints":[
				8,
				7,
				5,
				2,
				1,
				3,
				4,
				6
			],
			"name":"Object_6"
		}
	],
	"accessors":[
		{
			"bufferView":0,
			"componentType":5126,
			"count":4940,
			"max":[
				0.14180433750152588,
				0.45070967078208923,
				0.09025920927524567
			],
			"min":[
				-0.14180974662303925,
				-0.16357028484344482,
				-0.13445261120796204
			],
			"type":"VEC3"
		},
		{
			"bufferView":1,
			"componentType":5126,
			"count":4940,
			"type":"VEC3"
		},
		{
			"bufferView":2,
			"componentType":5126,
			"count":4940,
			"type":"VEC2"
		},
		{
			"bufferView":3,
			"componentType":5121,
			"count":4940,
			"type":"VEC4"
		},
		{
			"bufferView":4,
			"componentType":5126,
			"count":4940,
			"type":"VEC4"
		},
		{
			"bufferView":5,
			"componentType":5123,
			"count":5628,
			"type":"SCALAR"
		},
		{
			"bufferView":6,
			"componentType":5126,
			"count":8,
			"type":"MAT4"
		},
		{
			"bufferView":7,
			"componentType":5126,
			"count":2,
			"max":[
				1.7083333333333333
			],
			"min":[
				0.041666666666666664
			],
			"type":"SCALAR"
		},
		{
			"bufferView":8,
			"componentType":5126,
			"count":2,
			"type":"VEC3"
		},
		{
			"bufferView":9,
			"componentType":5126,
			"count":2,
			"type":"VEC4"
		},
		{
			"bufferView":10,
			"componentType":5126,
			"count":2,
			"type":"VEC3"
		},
		{
			"bufferView":11,
			"componentType":5126,
			"count":2,
			"type":"VEC3"
		},
		{
			"bufferView":12,
			"componentType":5126,
			"count":2,
			"type":"VEC4"
		},
		{
			"bufferView":13,
			"componentType":5126,
			"count":2,
			"type":"VEC3"
		},
		{
			"bufferView":14,
			"componentType":5126,
			"count":2,
			"type":"VEC3"
		},
		{
			"bufferView":15,
			"componentType":5126,
			"count":41,
			"max":[
				1.7083333333333333
			],
			"min":[
				0.041666666666666664
			],
			"type":"SCALAR"
		},
		{
			"bufferView":16,
			"componentType":5126,
			"count":41,
			"type":"VEC4"
		},
		{
			"bufferView":17,
			"componentType":5126,
			"count":2,
			"type":"VEC3"
		},
		{
			"bufferView":18,
			"componentType":5126,
			"count":2,
			"type":"VEC3"
		},
		{
			"bufferView":19,
			"componentType":5126,
			"count":41,
			"type":"VEC4"
		},
		{
			"bufferView":20,
			"componentType":5126,
			"count":2,
			"type":"VEC3"
		},
		{
			"bufferView":21,
			"componentType":5126,
			"count":2,
			"type":"VEC3"
		},
		{
			"bufferView":22,
			"componentType":5126,
			"count":41,
			"type":"VEC4"
		},
		{
			"bufferView":23,
			"componentType":5126,
			"count":2,
			"type":"VEC3"
		},
		{
			"bufferView":24,
			"componentType":5126,
			"count":41,
			"type":"VEC3"
		},
		{
			"bufferView":25,
			"componentType":5126,
			"count":41,
			"type":"VEC4"
		},
		{
			"bufferView":26,
			"componentType":5126,
			"count":2,
			"type":"VEC3"
		},
		{
			"bufferView":27,
			"componentType":5126,
			"count":41,
			"type":"VEC3"
		},
		{
			"bufferView":28,
			"componentType":5126,
			"count":41,
			"type":"VEC4"
		},
		{
			"bufferView":29,
			"componentType":5126,
			"count":2,
			"type":"VEC3"
		},
		{
			"bufferView":30,
			"componentType":5126,
			"count":2,
			"type":"VEC3"
		},
		{
			"bufferView":31,
			"componentType":5126,
			"count":41,
			"type":"VEC4"
		},
		{
			"bufferView":32,
			"componentType":5126,
			"count":2,
			"type":"VEC3"
		}
	],
	"bufferViews":[
		{
			"buffer":0,
			"byteLength":59280,
			"byteOffset":0,
			"target":34962
		},
		{
			"buffer":0,
			"byteLength":59280,
			"byteOffset":59280,
			"target":34962
		},
		{
			"buffer":0,
			"byteLength":39520,
			"byteOffset":118560,
			"target":34962
		},
		{
			"buffer":0,
			"byteLength":19760,
			"byteOffset":158080,
			"target":34962
		},
		{
			"buffer":0,
			"byteLength":79040,
			"byteOffset":177840,
			"target":34962
		},
		{
			"buffer":0,
			"byteLength":11256,
			"byteOffset":256880,
			"target":34963
		},
		{
			"buffer":0,
			"byteLength":512,
			"byteOffset":268136
		},
		{
			"buffer":0,
			"byteLength":8,
			"byteOffset":268648
		},
		{
			"buffer":0,
			"byteLength":24,
			"byteOffset":268656
		},
		{
			"buffer":0,
			"byteLength":32,
			"byteOffset":268680
		},
		{
			"buffer":0,
			"byteLength":24,
			"byteOffset":268712
		},
		{
			"buffer":0,
			"byteLength":24,
			"byteOffset":268736
		},
		{
			"buffer":0,
			"byteLength":32,
			"byteOffset":268760
		},
		{
			"buffer":0,
			"byteLength":24,
			"byteOffset":268792
		},
		{
			"buffer":0,
			"byteLength":24,
			"byteOffset":268816
		},
		{
			"buffer":0,
			"byteLength":164,
			"byteOffset":268840
		},
		{
			"buffer":0,
			"byteLength":656,
			"byteOffset":269004
		},
		{
			"buffer":0,
			"byteLength":24,
			"byteOffset":269660
		},
		{
			"buffer":0,
			"byteLength":24,
			"byteOffset":269684
		},
		{
			"buffer":0,
			"byteLength":656,
			"byteOffset":269708
		},
		{
			"buffer":0,
			"byteLength":24,
			"byteOffset":270364
		},
		{
			"buffer":0,
			"byteLength":24,
			"byteOffset":270388
		},
		{
			"buffer":0,
			"byteLength":656,
			"byteOffset":270412
		},
		{
			"buffer":0,
			"byteLength":24,
			"byteOffset":271068
		},
		{
			"buffer":0,
			"byteLength":492,
			"byteOffset":271092
		},
		{
			"buffer":0,
			"byteLength":656,
			"byteOffset":271584
		},
		{
			"buffer":0,
			"byteLength":24,
			"byteOffset":272240
		},
		{
			"buffer":0,
			"byteLength":492,
			"byteOffset":272264
		},
		{
			"buffer":0,
			"byteLength":656,
			"byteOffset":272756
		},
		{
			"buffer":0,
			"byteLength":24,
			"byteOffset":273412
		},
		{
			"buffer":0,
			"byteLength":24,
			"byteOffset":273436
		},
		{
			"buffer":0,
			"byteLength":656,
			"byteOffset":273460
		},
		{
			"buffer":0,
			"byteLength":24,
			"byteOffset":274116
		}
	],
	"samplers":[
		{
			"magFilter":9729,
			"minFilter":9987
		}
	],
	"buffers":[
		{
			"byteLength":274140,
			"uri":"scene.bin"
		}
	]
}
