{
  "accessors": [
    {
      "bufferView": 3,
      "componentType": 5126,
      "count": 1434,
      "max": [
        4.02249813079834,
        5.100218772888184,
        9.907145500183105
      ],
      "min": [
        -4.028590679168701,
        -3.9894721508026123,
        -10.304115295410156
      ],
      "type": "VEC3"
    },
    {
      "bufferView": 3,
      "byteOffset": 17208,
      "componentType": 5126,
      "count": 1434,
      "max": [
        1.0,
        0.9999195337295532,
        0.9964486956596375
      ],
      "min": [
        -1.0,
        -0.998100221157074,
        -0.997434139251709
      ],
      "type": "VEC3"
    },
    {
      "bufferView": 2,
      "componentType": 5126,
      "count": 1434,
      "max": [
        0.7500001192092896,
        0.8750001192092896
      ],
      "min": [
        0.0,
        0.0
      ],
      "type": "VEC2"
    },
    {
      "bufferView": 1,
      "componentType": 5125,
      "count": 2304,
      "type": "SCALAR"
    },
    {
      "bufferView": 3,
      "byteOffset": 34416,
      "componentType": 5126,
      "count": 32,
      "max": [
        1.3748630285263062,
        1.2362605333328247,
        7.989834785461426
      ],
      "min": [
        -1.3748629093170166,
        0.7711426615715027,
        7.528110027313232
      ],
      "type": "VEC3"
    },
    {
      "bufferView": 3,
      "byteOffset": 34800,
      "componentType": 5126,
      "count": 32,
      "max": [
        0.9922540783882141,
        0.5423831343650818,
        0.6285718083381653
      ],
      "min": [
        -0.9922540783882141,
        -0.516202449798584,
        -0.4222654104232788
      ],
      "type": "VEC3"
    },
    {
      "bufferView": 2,
      "byteOffset": 11472,
      "componentType": 5126,
      "count": 32,
      "max": [
        0.0,
        0.0
      ],
      "min": [
        0.0,
        0.0
      ],
      "type": "VEC2"
    },
    {
      "bufferView": 1,
      "byteOffset": 9216,
      "componentType": 5125,
      "count": 132,
      "type": "SCALAR"
    },
    {
      "bufferView": 5,
      "componentType": 5126,
      "count": 11,
      "max": [
        1.0,
        0.007682218682020903,
        0.004918018821626902,
        0.0,
        0.004918041173368692,
        1.0,
        0.009999987669289112,
        0.0,
        0.007682206574827433,
        0.006505682598799467,
        1.0,
        0.0,
        0.014839115552604198,
        0.0971338152885437,
        0.000145409008837305,
        1.0
      ],
      "min": [
        -0.009999999776482582,
        -0.007682218682020903,
        -0.004918018821626902,
        0.0,
        -0.004918041173368692,
        -0.006401828955858946,
        -0.009999977424740791,
        0.0,
        -0.007682206574827433,
        -0.009999996051192284,
        -1.4969951735110953e-05,
        0.0,
        -0.014839115552604198,
        -0.07928211987018585,
        -0.008058932609856129,
        1.0
      ],
      "type": "MAT4"
    },
    {
      "bufferView": 0,
      "componentType": 5123,
      "count": 1434,
      "type": "VEC4"
    },
    {
      "bufferView": 4,
      "componentType": 5126,
      "count": 1434,
      "max": [
        1.0,
        0.49595168232917786,
        0.2676379382610321,
        0.11276458948850632
      ],
      "min": [
        0.3788467347621918,
        0.0,
        0.0,
        0.0
      ],
      "type": "VEC4"
    },
    {
      "bufferView": 0,
      "byteOffset": 11472,
      "componentType": 5123,
      "count": 32,
      "type": "VEC4"
    },
    {
      "bufferView": 4,
      "byteOffset": 22944,
      "componentType": 5126,
      "count": 32,
      "max": [
        1.0,
        0.0,
        0.0,
        0.0
      ],
      "min": [
        1.0,
        0.0,
        0.0,
        0.0
      ],
      "type": "VEC4"
    },
    {
      "bufferView": 6,
      "componentType": 5126,
      "count": 180,
      "max": [
        3.75
      ],
      "min": [
        0.0
      ],
      "type": "SCALAR"
    },
    {
      "bufferView": 7,
      "componentType": 5126,
      "count": 180,
      "max": [
        0.44721317291259766,
        0.9999995827674866,
        -0.0004927818081341684,
        0.00024505137116648257
      ],
      "min": [
        -0.44721314311027527,
        0.8944272398948669,
        -0.0009188013500533998,
        -0.0002557364641688764
      ],
      "type": "VEC4"
    },
    {
      "bufferView": 6,
      "byteOffset": 720,
      "componentType": 5126,
      "count": 121,
      "max": [
        3.75
      ],
      "min": [
        0.0
      ],
      "type": "SCALAR"
    },
    {
      "bufferView": 7,
      "byteOffset": 2880,
      "componentType": 5126,
      "count": 121,
      "max": [
        0.04730955511331558,
        0.16216948628425598,
        -0.08442272990942001,
        0.9346455931663513
      ],
      "min": [
        -0.3928433358669281,
        -0.06426572799682617,
        -0.49454742670059204,
        0.8654794096946716
      ],
      "type": "VEC4"
    },
    {
      "bufferView": 6,
      "byteOffset": 1204,
      "componentType": 5126,
      "count": 122,
      "max": [
        3.75
      ],
      "min": [
        0.0
      ],
      "type": "SCALAR"
    },
    {
      "bufferView": 7,
      "byteOffset": 4816,
      "componentType": 5126,
      "count": 122,
      "max": [
        0.04730956628918648,
        0.06426572054624557,
        0.4945474863052368,
        0.9346862435340881
      ],
      "min": [
        -0.3928433060646057,
        -0.1621694564819336,
        0.084422767162323,
        0.8654793500900269
      ],
      "type": "VEC4"
    }
  ],
  "animations": [
    {
      "channels": [
        {
          "sampler": 0,
          "target": {
            "node": 13,
            "path": "rotation"
          }
        },
        {
          "sampler": 1,
          "target": {
            "node": 16,
            "path": "rotation"
          }
        },
        {
          "sampler": 2,
          "target": {
            "node": 19,
            "path": "rotation"
          }
        }
      ],
      "name": "Fish_Rigged|Fish_RiggedAction",
      "samplers": [
        {
          "input": 13,
          "interpolation": "LINEAR",
          "output": 14
        },
        {
          "input": 15,
          "interpolation": "LINEAR",
          "output": 16
        },
        {
          "input": 17,
          "interpolation": "LINEAR",
          "output": 18
        }
      ]
    }
  ],
  "asset": {
    "extras": {
      "author": "kharalos (https://sketchfab.com/kharalos)",
      "license": "CC-BY-4.0 (http://creativecommons.org/licenses/by/4.0/)",
      "source": "https://sketchfab.com/3d-models/fish-low-poly-rigged-animated-77b7c7c352c94ab08081ba221858c9c2",
      "title": "Fish - Low Poly - Rigged - Animated"
    },
    "generator": "Sketchfab-12.67.0",
    "version": "2.0"
  },
  "bufferViews": [
    {
      "buffer": 0,
      "byteLength": 11728,
      "byteStride": 8,
      "name": "shortBufferViews",
      "target": 34962
    },
    {
      "buffer": 0,
      "byteLength": 9744,
      "byteOffset": 11728,
      "name": "floatBufferViews",
      "target": 34963
    },
    {
      "buffer": 0,
      "byteLength": 11728,
      "byteOffset": 21472,
      "byteStride": 8,
      "name": "floatBufferViews",
      "target": 34962
    },
    {
      "buffer": 0,
      "byteLength": 35184,
      "byteOffset": 33200,
      "byteStride": 12,
      "name": "floatBufferViews",
      "target": 34962
    },
    {
      "buffer": 0,
      "byteLength": 23456,
      "byteOffset": 68384,
      "byteStride": 16,
      "name": "floatBufferViews",
      "target": 34962
    },
    {
      "buffer": 0,
      "byteLength": 704,
      "byteOffset": 91840,
      "name": "floatBufferViews"
    },
    {
      "buffer": 0,
      "byteLength": 1692,
      "byteOffset": 92544,
      "name": "floatBufferViews"
    },
    {
      "buffer": 0,
      "byteLength": 6768,
      "byteOffset": 94236,
      "byteStride": 16,
      "name": "floatBufferViews"
    }
  ],
  "buffers": [
    {
      "byteLength": 101004,
      "uri": "scene.bin"
    }
  ],
  "materials": [
    {
      "doubleSided": true,
      "name": "M_Fish",
      "pbrMetallicRoughness": {
        "baseColorFactor": [
          0.8,
          0.101572,
          0.00586813,
          1.0
        ],
        "metallicFactor": 0.0,
        "roughnessFactor": 0.9404411533
      }
    },
    {
      "doubleSided": true,
      "name": "M_FishEye",
      "pbrMetallicRoughness": {
        "baseColorFactor": [
          0.0,
          0.0,
          0.0,
          1.0
        ],
        "metallicFactor": 0.0
      }
    }
  ],
  "meshes": [
    {
      "name": "Fish_M_Fish_0",
      "primitives": [
        {
          "attributes": {
            "JOINTS_0": 9,
            "NORMAL": 1,
            "POSITION": 0,
            "TEXCOORD_0": 2,
            "WEIGHTS_0": 10
          },
          "indices": 3,
          "material": 0,
          "mode": 4
        }
      ]
    },
    {
      "name": "Fish_M_FishEye_0",
      "primitives": [
        {
          "attributes": {
            "JOINTS_0": 11,
            "NORMAL": 5,
            "POSITION": 4,
            "TEXCOORD_0": 6,
            "WEIGHTS_0": 12
          },
          "indices": 7,
          "material": 1,
          "mode": 4
        }
      ]
    }
  ],
  "nodes": [
    {
      "children": [
        1
      ],
      "matrix": [
        1.0,
        0.0,
        0.0,
        0.0,
        0.0,
        2.220446049250313e-16,
        -1.0,
        0.0,
        0.0,
        1.0,
        2.220446049250313e-16,
        0.0,
        0.0,
        0.0,
        0.0,
        1.0
      ],
      "name": "Sketchfab_model"
    },
    {
      "children": [
        2
      ],
      "matrix": [
        0.009999999776482582,
        0.0,
        0.0,
        0.0,
        0.0,
        0.0,
        0.009999999776482582,
        0.0,
        0.0,
        -0.009999999776482582,
        0.0,
        0.0,
        0.0,
        0.0,
        0.0,
        1.0
      ],
      "name": "88c6adbdf2db45debc80dc1410d3ebb4.fbx"
    },
    {
      "children": [
        3
      ],
      "name": "Object_2"
    },
    {
      "children": [
        4,
        5
      ],
      "name": "RootNode"
    },
    {
      "name": "Fish"
    },
    {
      "children": [
        6
      ],
      "name": "Fish_Rigged",
      "rotation": [
        -3.090862321641907e-08,
        0.7071068286895752,
        0.7071067094802856,
        -3.0908616110991716e-08
      ],
      "scale": [
        100.0,
        100.0,
        100.0
      ]
    },
    {
      "children": [
        7,
        9,
        10,
        8
      ],
      "name": "Object_6"
    },
    {
      "children": [
        11
      ],
      "name": "_rootJoint"
    },
    {
      "matrix": [
        0.9999999776482582,
        -4.1271346470060966e-23,
        7.629338822352753e-27,
        0.0,
        4.127134671058931e-23,
        0.9999999834762232,
        -4.918162405109783e-11,
        0.0,
        -7.629337342936133e-27,
        4.918162731239852e-11,
        1.0000000497875885,
        0.0,
        3.8938248237419007e-25,
        -5.857136997633461e-10,
        7.718582217819403e-08,
        1.0
      ],
      "name": "Object_8"
    },
    {
      "mesh": 0,
      "name": "Object_9",
      "skin": 0
    },
    {
      "mesh": 1,
      "name": "Object_10",
      "skin": 0
    },
    {
      "children": [
        12,
        15,
        18
      ],
      "name": "bodyUpper_00",
      "rotation": [
        0.9999998211860657,
        -6.1711870752016e-24,
        -2.220446578645905e-16,
        0.0007484714733436704
      ],
      "scale": [
        1.0,
        1.0,
        1.000001072883606
      ],
      "translation": [
        3.0495539612873988e-31,
        0.09713392704725266,
        3.308722450212111e-24
      ]
    },
    {
      "children": [
        13
      ],
      "name": "bodyLower_01",
      "rotation": [
        0.0016624894924461842,
        2.6474739826636007e-14,
        6.710441177098863e-17,
        0.9999986290931702
      ],
      "translation": [
        4.916867177583536e-27,
        0.09698884934186935,
        -7.673861546209082e-13
      ]
    },
    {
      "children": [
        14
      ],
      "name": "tail_02",
      "rotation": [
        3.970737072478414e-09,
        0.9999995827674866,
        -0.0009188014082610607,
        -4.367037945485208e-06
      ],
      "scale": [
        1.0,
        1.000000238418579,
        1.0
      ],
      "translation": [
        1.174579868247549e-24,
        0.07942747324705124,
        4.166046847775551e-17
      ]
    },
    {
      "name": "tail_end_07",
      "rotation": [
        -8.470329472543003e-22,
        -1.2035442571677999e-21,
        4.0389678347315804e-27,
        1.0
      ],
      "translation": [
        -1.7670484276950664e-28,
        0.02358393371105194,
        1.0587911840678754e-22
      ]
    },
    {
      "children": [
        16
      ],
      "name": "BodyWing.R_03",
      "rotation": [
        0.9086912870407104,
        0.26818618178367615,
        0.0002006266440730542,
        0.31993168592453003
      ],
      "scale": [
        1.0,
        1.0,
        1.0000001192092896
      ],
      "translation": [
        4.916867177583536e-27,
        0.09698884934186935,
        -7.673861546209082e-13
      ]
    },
    {
      "children": [
        17
      ],
      "name": "Wing.R_04",
      "rotation": [
        -0.18452972173690796,
        0.052758537232875824,
        -0.30384790897369385,
        0.9331890344619751
      ],
      "scale": [
        0.9999999403953552,
        0.9999999403953552,
        0.9999999403953552
      ],
      "translation": [
        -2.9467628337442875e-10,
        0.025229845196008682,
        -5.238689482212067e-10
      ]
    },
    {
      "name": "Wing.R_end_08",
      "rotation": [
        2.1087824899071667e-17,
        -1.3682846079067585e-33,
        -6.488505310028436e-17,
        1.0
      ],
      "translation": [
        -1.734723475976807e-18,
        0.035380370914936066,
        -3.469446951953614e-18
      ]
    },
    {
      "children": [
        19
      ],
      "name": "BodyWing.L_05",
      "rotation": [
        0.9086912870407104,
        -0.26818618178367615,
        -0.0002006266440730542,
        0.31993168592453003
      ],
      "scale": [
        1.0,
        1.0,
        1.0000001192092896
      ],
      "translation": [
        4.916867177583536e-27,
        0.09698884934186935,
        -7.673861546209082e-13
      ]
    },
    {
      "children": [
        20
      ],
      "name": "Wing.L_06",
      "rotation": [
        -0.18452972173690796,
        -0.052758537232875824,
        0.30384790897369385,
        0.9331890344619751
      ],
      "scale": [
        0.9999999403953552,
        0.9999999403953552,
        0.9999999403953552
      ],
      "translation": [
        2.9467628337442875e-10,
        0.025229845196008682,
        -5.238689482212067e-10
      ]
    },
    {
      "name": "Wing.L_end_09",
      "rotation": [
        -2.5456099539515202e-17,
        2.7755575615628914e-17,
        5.052698437648691e-17,
        1.0
      ],
      "translation": [
        0.0,
        0.035380370914936066,
        0.0
      ]
    }
  ],
  "scene": 0,
  "scenes": [
    {
      "name": "Sketchfab_Scene",
      "nodes": [
        0
      ]
    }
  ],
  "skins": [
    {
      "inverseBindMatrices": 8,
      "joints": [
        7,
        11,
        12,
        13,
        14,
        15,
        16,
        17,
        18,
        19,
        20
      ],
      "skeleton": 7
    }
  ]
}
