{
	"asset":{
		"generator":"Khronos glTF Blender I/O v4.0.44",
		"version":"2.0"
	},
	"scene":0,
	"scenes":[
		{
			"name":"Scene",
			"nodes":[
				16
			]
		}
	],
	"nodes":[
		{
			"name":"Object_14",
			"rotation":[
				-0.70710688829422,
				0,
				0,
				0.7071066498756409
			],
			"scale":[
				100,
				100.0000228881836,
				100.00001525878906
			]
		},
		{
			"name":"Tail_03",
			"rotation":[
				1.5987211554602254e-14,
				7.105427357601002e-15,
				-2.884028819409528e-21,
				1
			],
			"scale":[
				0.9999999403953552,
				0.9999999403953552,
				1
			],
			"translation":[
				2.0328790734103208e-20,
				1.4725195169448853,
				1.2079226507921703e-13
			]
		},
		{
			"children":[
				1
			],
			"name":"Body.002_02",
			"rotation":[
				1.2036212027055626e-09,
				-1.7763568394002505e-14,
				1.776361921597934e-15,
				1
			],
			"scale":[
				1,
				0.9999999403953552,
				1
			],
			"translation":[
				-1.916104781961238e-15,
				1.4725196361541748,
				1.2983711883407523e-09
			]
		},
		{
			"name":"UnderFin.L_04",
			"rotation":[
				0.13552893698215485,
				0.9728350043296814,
				-0.1817668080329895,
				0.04674145579338074
			],
			"scale":[
				1,
				0.9999998211860657,
				1
			],
			"translation":[
				0.14076104760169983,
				0.44239258766174316,
				-0.8095088005065918
			]
		},
		{
			"name":"UnderFin.R_05",
			"rotation":[
				0.07654136419296265,
				-0.9167808294296265,
				0.21342135965824127,
				0.32879430055618286
			],
			"scale":[
				1,
				0.9999997615814209,
				1
			],
			"translation":[
				-0.14076131582260132,
				0.44239258766174316,
				-0.809508740901947
			]
		},
		{
			"children":[
				2,
				3,
				4
			],
			"name":"Body.001_01",
			"rotation":[
				8.429371689544496e-08,
				2.99439381744196e-22,
				1,
				2.029201891628053e-16
			],
			"translation":[
				2.1671835587357786e-15,
				-5.21540641784668e-08,
				1.4684733429248809e-09
			]
		},
		{
			"name":"Mouth_06",
			"rotation":[
				-0.05099106207489967,
				3.7204437308702154e-09,
				-1.899547324990536e-10,
				0.9986991286277771
			],
			"scale":[
				1,
				0.9999999403953552,
				1
			],
			"translation":[
				4.0602489915921405e-16,
				0.5509684085845947,
				-0.26180756092071533
			]
		},
		{
			"children":[
				5,
				6
			],
			"name":"Head_00",
			"rotation":[
				-0.7071067094802856,
				-1.2101621038596022e-08,
				-1.2101618374060763e-08,
				0.7071068286895752
			],
			"translation":[
				3.8549341496718625e-09,
				-7.450580596923828e-09,
				-0.11262337118387222
			]
		},
		{
			"children":[
				7
			],
			"name":"_rootJoint",
			"rotation":[
				-8.557126562891426e-09,
				1.7114274442064925e-08,
				-2.928982756881431e-16,
				1
			]
		},
		{
			"mesh":0,
			"name":"Object_15",
			"skin":0
		},
		{
			"children":[
				0,
				9,
				8
			],
			"name":"Object_5"
		},
		{
			"children":[
				10
			],
			"name":"Armature",
			"rotation":[
				-0.70710688829422,
				0,
				0,
				0.7071066498756409
			],
			"scale":[
				11.410307884216309,
				11.410305976867676,
				11.410305976867676
			]
		},
		{
			"name":"RedSeabream",
			"rotation":[
				-0.70710688829422,
				0,
				0,
				0.7071066498756409
			],
			"scale":[
				100,
				99.99999237060547,
				99.99999237060547
			]
		},
		{
			"children":[
				11,
				12
			],
			"name":"RootNode"
		},
		{
			"children":[
				13
			],
			"name":"Object_2"
		},
		{
			"children":[
				14
			],
			"name":"RedSeabream.fbx",
			"rotation":[
				0.70710688829422,
				0,
				0,
				0.7071066498756409
			],
			"scale":[
				0.009999999776482582,
				0.010000000707805157,
				0.010000000707805157
			]
		},
		{
			"children":[
				15
			],
			"name":"Sketchfab_model",
			"rotation":[
				-0.70710688829422,
				0,
				0,
				0.7071066498756409
			]
		}
	],
	"animations":[
		{
			"channels":[
				{
					"sampler":0,
					"target":{
						"node":8,
						"path":"translation"
					}
				},
				{
					"sampler":1,
					"target":{
						"node":8,
						"path":"rotation"
					}
				},
				{
					"sampler":2,
					"target":{
						"node":8,
						"path":"scale"
					}
				},
				{
					"sampler":3,
					"target":{
						"node":7,
						"path":"translation"
					}
				},
				{
					"sampler":4,
					"target":{
						"node":7,
						"path":"rotation"
					}
				},
				{
					"sampler":5,
					"target":{
						"node":7,
						"path":"scale"
					}
				},
				{
					"sampler":6,
					"target":{
						"node":5,
						"path":"translation"
					}
				},
				{
					"sampler":7,
					"target":{
						"node":5,
						"path":"rotation"
					}
				},
				{
					"sampler":8,
					"target":{
						"node":5,
						"path":"scale"
					}
				},
				{
					"sampler":9,
					"target":{
						"node":2,
						"path":"translation"
					}
				},
				{
					"sampler":10,
					"target":{
						"node":2,
						"path":"rotation"
					}
				},
				{
					"sampler":11,
					"target":{
						"node":2,
						"path":"scale"
					}
				},
				{
					"sampler":12,
					"target":{
						"node":1,
						"path":"translation"
					}
				},
				{
					"sampler":13,
					"target":{
						"node":1,
						"path":"rotation"
					}
				},
				{
					"sampler":14,
					"target":{
						"node":1,
						"path":"scale"
					}
				},
				{
					"sampler":15,
					"target":{
						"node":3,
						"path":"translation"
					}
				},
				{
					"sampler":16,
					"target":{
						"node":3,
						"path":"rotation"
					}
				},
				{
					"sampler":17,
					"target":{
						"node":3,
						"path":"scale"
					}
				},
				{
					"sampler":18,
					"target":{
						"node":4,
						"path":"translation"
					}
				},
				{
					"sampler":19,
					"target":{
						"node":4,
						"path":"rotation"
					}
				},
				{
					"sampler":20,
					"target":{
						"node":4,
						"path":"scale"
					}
				},
				{
					"sampler":21,
					"target":{
						"node":6,
						"path":"translation"
					}
				},
				{
					"sampler":22,
					"target":{
						"node":6,
						"path":"rotation"
					}
				},
				{
					"sampler":23,
					"target":{
						"node":6,
						"path":"scale"
					}
				}
			],
			"name":"Scene",
			"samplers":[
				{
					"input":7,
					"interpolation":"STEP",
					"output":8
				},
				{
					"input":7,
					"interpolation":"STEP",
					"output":9
				},
				{
					"input":7,
					"interpolation":"STEP",
					"output":10
				},
				{
					"input":7,
					"interpolation":"STEP",
					"output":11
				},
				{
					"input":7,
					"interpolation":"STEP",
					"output":12
				},
				{
					"input":7,
					"interpolation":"STEP",
					"output":13
				},
				{
					"input":7,
					"interpolation":"STEP",
					"output":14
				},
				{
					"input":15,
					"interpolation":"LINEAR",
					"output":16
				},
				{
					"input":7,
					"interpolation":"STEP",
					"output":17
				},
				{
					"input":7,
					"interpolation":"LINEAR",
					"output":18
				},
				{
					"input":15,
					"interpolation":"LINEAR",
					"output":19
				},
				{
					"input":7,
					"interpolation":"STEP",
					"output":20
				},
				{
					"input":7,
					"interpolation":"STEP",
					"output":21
				},
				{
					"input":15,
					"interpolation":"LINEAR",
					"output":22
				},
				{
					"input":7,
					"interpolation":"STEP",
					"output":23
				},
				{
					"input":7,
					"interpolation":"STEP",
					"output":24
				},
				{
					"input":15,
					"interpolation":"LINEAR",
					"output":25
				},
				{
					"input":7,
					"interpolation":"STEP",
					"output":26
				},
				{
					"input":7,
					"interpolation":"STEP",
					"output":27
				},
				{
					"input":15,
					"interpolation":"LINEAR",
					"output":28
				},
				{
					"input":7,
					"interpolation":"STEP",
					"output":29
				},
				{
					"input":7,
					"interpolation":"STEP",
					"output":30
				},
				{
					"input":15,
					"interpolation":"LINEAR",
					"output":31
				},
				{
					"input":7,
					"interpolation":"STEP",
					"output":32
				}
			]
		}
	],
	"materials":[
		{
			"doubleSided":true,
			"name":"RedSeabream_M",
			"pbrMetallicRoughness":{
				"baseColorTexture":{
					"index":0
				},
				"metallicFactor":0.5958113670349121,
				"roughnessFactor":0.31885507702827454
			}
		}
	],
	"meshes":[
		{
			"name":"RedSeabream_RedSeabream_M_0",
			"primitives":[
				{
					"attributes":{
						"POSITION":0,
						"NORMAL":1,
						"TEXCOORD_0":2,
						"JOINTS_0":3,
						"WEIGHTS_0":4
					},
					"indices":5,
					"material":0
				}
			]
		}
	],
	"textures":[
		{
			"sampler":0,
			"source":0
		}
	],
	"images":[
		{
			"mimeType":"image/png",
			"name":"RedSeabream_M_baseColor",
			"uri":"RedSeabream_M_baseColor.png"
		}
	],
	"skins":[
		{
			"inverseBindMatrices":6,
			"joints":[
				8,
				7,
				5,
				2,
				1,
				3,
				4,
				6
			],
			"name":"Object_5"
		}
	],
	"accessors":[
		{
			"bufferView":0,
			"componentType":5126,
			"count":2682,
			"max":[
				0.10426243394613266,
				0.503840982913971,
				0.12474888563156128
			],
			"min":[
				-0.10426243394613266,
				-0.159453347325325,
				-0.1708073616027832
			],
			"type":"VEC3"
		},
		{
			"bufferView":1,
			"componentType":5126,
			"count":2682,
			"type":"VEC3"
		},
		{
			"bufferView":2,
			"componentType":5126,
			"count":2682,
			"type":"VEC2"
		},
		{
			"bufferView":3,
			"componentType":5121,
			"count":2682,
			"type":"VEC4"
		},
		{
			"bufferView":4,
			"componentType":5126,
			"count":2682,
			"type":"VEC4"
		},
		{
			"bufferView":5,
			"componentType":5123,
			"count":3444,
			"type":"SCALAR"
		},
		{
			"bufferView":6,
			"componentType":5126,
			"count":8,
			"type":"MAT4"
		},
		{
			"bufferView":7,
			"componentType":5126,
			"count":2,
			"max":[
				1.8333333333333333
			],
			"min":[
				0.041666666666666664
			],
			"type":"SCALAR"
		},
		{
			"bufferView":8,
			"componentType":5126,
			"count":2,
			"type":"VEC3"
		},
		{
			"bufferView":9,
			"componentType":5126,
			"count":2,
			"type":"VEC4"
		},
		{
			"bufferView":10,
			"componentType":5126,
			"count":2,
			"type":"VEC3"
		},
		{
			"bufferView":11,
			"componentType":5126,
			"count":2,
			"type":"VEC3"
		},
		{
			"bufferView":12,
			"componentType":5126,
			"count":2,
			"type":"VEC4"
		},
		{
			"bufferView":13,
			"componentType":5126,
			"count":2,
			"type":"VEC3"
		},
		{
			"bufferView":14,
			"componentType":5126,
			"count":2,
			"type":"VEC3"
		},
		{
			"bufferView":15,
			"componentType":5126,
			"count":44,
			"max":[
				1.8333333333333333
			],
			"min":[
				0.041666666666666664
			],
			"type":"SCALAR"
		},
		{
			"bufferView":16,
			"componentType":5126,
			"count":44,
			"type":"VEC4"
		},
		{
			"bufferView":17,
			"componentType":5126,
			"count":2,
			"type":"VEC3"
		},
		{
			"bufferView":18,
			"componentType":5126,
			"count":2,
			"type":"VEC3"
		},
		{
			"bufferView":19,
			"componentType":5126,
			"count":44,
			"type":"VEC4"
		},
		{
			"bufferView":20,
			"componentType":5126,
			"count":2,
			"type":"VEC3"
		},
		{
			"bufferView":21,
			"componentType":5126,
			"count":2,
			"type":"VEC3"
		},
		{
			"bufferView":22,
			"componentType":5126,
			"count":44,
			"type":"VEC4"
		},
		{
			"bufferView":23,
			"componentType":5126,
			"count":2,
			"type":"VEC3"
		},
		{
			"bufferView":24,
			"componentType":5126,
			"count":2,
			"type":"VEC3"
		},
		{
			"bufferView":25,
			"componentType":5126,
			"count":44,
			"type":"VEC4"
		},
		{
			"bufferView":26,
			"componentType":5126,
			"count":2,
			"type":"VEC3"
		},
		{
			"bufferView":27,
			"componentType":5126,
			"count":2,
			"type":"VEC3"
		},
		{
			"bufferView":28,
			"componentType":5126,
			"count":44,
			"type":"VEC4"
		},
		{
			"bufferView":29,
			"componentType":5126,
			"count":2,
			"type":"VEC3"
		},
		{
			"bufferView":30,
			"componentType":5126,
			"count":2,
			"type":"VEC3"
		},
		{
			"bufferView":31,
			"componentType":5126,
			"count":44,
			"type":"VEC4"
		},
		{
			"bufferView":32,
			"componentType":5126,
			"count":2,
			"type":"VEC3"
		}
	],
	"bufferViews":[
		{
			"buffer":0,
			"byteLength":32184,
			"byteOffset":0,
			"target":34962
		},
		{
			"buffer":0,
			"byteLength":32184,
			"byteOffset":32184,
			"target":34962
		},
		{
			"buffer":0,
			"byteLength":21456,
			"byteOffset":64368,
			"target":34962
		},
		{
			"buffer":0,
			"byteLength":10728,
			"byteOffset":85824,
			"target":34962
		},
		{
			"buffer":0,
			"byteLength":42912,
			"byteOffset":96552,
			"target":34962
		},
		{
			"buffer":0,
			"byteLength":6888,
			"byteOffset":139464,
			"target":34963
		},
		{
			"buffer":0,
			"byteLength":512,
			"byteOffset":146352
		},
		{
			"buffer":0,
			"byteLength":8,
			"byteOffset":146864
		},
		{
			"buffer":0,
			"byteLength":24,
			"byteOffset":146872
		},
		{
			"buffer":0,
			"byteLength":32,
			"byteOffset":146896
		},
		{
			"buffer":0,
			"byteLength":24,
			"byteOffset":146928
		},
		{
			"buffer":0,
			"byteLength":24,
			"byteOffset":146952
		},
		{
			"buffer":0,
			"byteLength":32,
			"byteOffset":146976
		},
		{
			"buffer":0,
			"byteLength":24,
			"byteOffset":147008
		},
		{
			"buffer":0,
			"byteLength":24,
			"byteOffset":147032
		},
		{
			"buffer":0,
			"byteLength":176,
			"byteOffset":147056
		},
		{
			"buffer":0,
			"byteLength":704,
			"byteOffset":147232
		},
		{
			"buffer":0,
			"byteLength":24,
			"byteOffset":147936
		},
		{
			"buffer":0,
			"byteLength":24,
			"byteOffset":147960
		},
		{
			"buffer":0,
			"byteLength":704,
			"byteOffset":147984
		},
		{
			"buffer":0,
			"byteLength":24,
			"byteOffset":148688
		},
		{
			"buffer":0,
			"byteLength":24,
			"byteOffset":148712
		},
		{
			"buffer":0,
			"byteLength":704,
			"byteOffset":148736
		},
		{
			"buffer":0,
			"byteLength":24,
			"byteOffset":149440
		},
		{
			"buffer":0,
			"byteLength":24,
			"byteOffset":149464
		},
		{
			"buffer":0,
			"byteLength":704,
			"byteOffset":149488
		},
		{
			"buffer":0,
			"byteLength":24,
			"byteOffset":150192
		},
		{
			"buffer":0,
			"byteLength":24,
			"byteOffset":150216
		},
		{
			"buffer":0,
			"byteLength":704,
			"byteOffset":150240
		},
		{
			"buffer":0,
			"byteLength":24,
			"byteOffset":150944
		},
		{
			"buffer":0,
			"byteLength":24,
			"byteOffset":150968
		},
		{
			"buffer":0,
			"byteLength":704,
			"byteOffset":150992
		},
		{
			"buffer":0,
			"byteLength":24,
			"byteOffset":151696
		}
	],
	"samplers":[
		{
			"magFilter":9729,
			"minFilter":9987
		}
	],
	"buffers":[
		{
			"byteLength":151720,
			"uri":"scene.bin"
		}
	]
}
