{
  "accessors": [
    {
      "bufferView": 3,
      "componentType": 5126,
      "count": 2948,
      "max": [
        0.08058574795722961,
        0.08100423961877823,
        0.20783647894859314
      ],
      "min": [
        -0.08058574795722961,
        -0.09496785700321198,
        -0.3024653494358063
      ],
      "type": "VEC3"
    },
    {
      "bufferView": 3,
      "byteOffset": 35376,
      "componentType": 5126,
      "count": 2948,
      "max": [
        0.9999985694885254,
        0.9821937084197998,
        0.979123055934906
      ],
      "min": [
        -0.9999985694885254,
        -0.9978029131889343,
        -0.7831681966781616
      ],
      "type": "VEC3"
    },
    {
      "bufferView": 2,
      "componentType": 5126,
      "count": 2948,
      "max": [
        0.9895830154418945,
        0.9851762652397156
      ],
      "min": [
        0.009219080209732056,
        0.2203521579504013
      ],
      "type": "VEC2"
    },
    {
      "bufferView": 1,
      "componentType": 5125,
      "count": 3816,
      "type": "SCALAR"
    },
    {
      "bufferView": 5,
      "componentType": 5126,
      "count": 8,
      "max": [
        1.0,
        0.1345699578523636,
        0.03476740047335625,
        0.0,
        0.1389886736869812,
        1.0,
        1.0,
        0.0,
        1.4834424177934125e-07,
        1.0,
        1.0,
        0.0,
        0.007735530845820904,
        0.12077910453081131,
        0.05061822012066841,
        1.0
      ],
      "min": [
        -1.0,
        -0.1345699578523636,
        -0.03476740047335625,
        0.0,
        -0.1389886736869812,
        -0.9588108658790588,
        0.0,
        0.0,
        -5.0291429687376876e-08,
        -1.0,
        -0.9682082533836365,
        0.0,
        -0.007735530845820904,
        -0.1727302372455597,
        -7.395586937542655e-18,
        1.0
      ],
      "type": "MAT4"
    },
    {
      "bufferView": 0,
      "componentType": 5123,
      "count": 2948,
      "type": "VEC4"
    },
    {
      "bufferView": 4,
      "componentType": 5126,
      "count": 2948,
      "max": [
        1.0,
        0.49474507570266724,
        0.221171036362648,
        0.06294120103120804
      ],
      "min": [
        0.49181830883026123,
        0.0,
        0.0,
        0.0
      ],
      "type": "VEC4"
    },
    {
      "bufferView": 6,
      "componentType": 5126,
      "count": 311,
      "max": [
        16.66666603088379
      ],
      "min": [
        0.0416666679084301
      ],
      "type": "SCALAR"
    },
    {
      "bufferView": 7,
      "componentType": 5126,
      "count": 311,
      "max": [
        1.0826624929904938e-08,
        0.1326148360967636,
        1.1641537733808605e-10
      ],
      "min": [
        1.0826624929904938e-08,
        0.1326148360967636,
        1.1641526631578358e-10
      ],
      "type": "VEC3"
    },
    {
      "bufferView": 6,
      "byteOffset": 1244,
      "componentType": 5126,
      "count": 798,
      "max": [
        16.66666603088379
      ],
      "min": [
        0.0416666679084301
      ],
      "type": "SCALAR"
    },
    {
      "bufferView": 8,
      "componentType": 5126,
      "count": 798,
      "max": [
        0.10078345984220505,
        0.3000740110874176,
        0.33310166001319885,
        0.9997993111610413
      ],
      "min": [
        -0.13040852546691895,
        -0.36436164379119873,
        -0.38480645418167114,
        0.8681517243385315
      ],
      "type": "VEC4"
    },
    {
      "bufferView": 6,
      "byteOffset": 4436,
      "componentType": 5126,
      "count": 732,
      "max": [
        16.66666603088379
      ],
      "min": [
        0.0416666679084301
      ],
      "type": "SCALAR"
    },
    {
      "bufferView": 7,
      "byteOffset": 3732,
      "componentType": 5126,
      "count": 732,
      "max": [
        -8.731138034789865e-11,
        0.160894513130188,
        3.783498514486894e-10
      ],
      "min": [
        -8.731160239250357e-11,
        0.160894513130188,
        3.783497404263869e-10
      ],
      "type": "VEC3"
    },
    {
      "bufferView": 6,
      "byteOffset": 7364,
      "componentType": 5126,
      "count": 798,
      "max": [
        16.66666603088379
      ],
      "min": [
        0.0416666679084301
      ],
      "type": "SCALAR"
    },
    {
      "bufferView": 8,
      "byteOffset": 12768,
      "componentType": 5126,
      "count": 798,
      "max": [
        0.15321435034275055,
        0.27225419878959656,
        0.29918673634529114,
        1.0
      ],
      "min": [
        -0.19235444068908691,
        -0.14806534349918365,
        -0.33030039072036743,
        0.9046398997306824
      ],
      "type": "VEC4"
    },
    {
      "bufferView": 6,
      "byteOffset": 10556,
      "componentType": 5126,
      "count": 794,
      "max": [
        16.66666603088379
      ],
      "min": [
        0.0416666679084301
      ],
      "type": "SCALAR"
    },
    {
      "bufferView": 8,
      "byteOffset": 25536,
      "componentType": 5126,
      "count": 794,
      "max": [
        -0.4350665509700775,
        0.15447236597537994,
        0.21356341242790222,
        0.8894528746604919
      ],
      "min": [
        -0.6711395978927612,
        -0.3772374391555786,
        -0.2644674479961395,
        0.725398600101471
      ],
      "type": "VEC4"
    },
    {
      "bufferView": 6,
      "byteOffset": 13732,
      "componentType": 5126,
      "count": 794,
      "max": [
        16.66666603088379
      ],
      "min": [
        0.0416666679084301
      ],
      "type": "SCALAR"
    },
    {
      "bufferView": 8,
      "byteOffset": 38240,
      "componentType": 5126,
      "count": 794,
      "max": [
        -0.5099365711212158,
        0.25271034240722656,
        0.30011817812919617,
        0.8414413332939148
      ],
      "min": [
        -0.6132978200912476,
        -0.20415765047073364,
        -0.14114755392074585,
        0.7301143407821655
      ],
      "type": "VEC4"
    },
    {
      "bufferView": 6,
      "byteOffset": 16908,
      "componentType": 5126,
      "count": 161,
      "max": [
        16.66666603088379
      ],
      "min": [
        0.0416666679084301
      ],
      "type": "SCALAR"
    },
    {
      "bufferView": 7,
      "byteOffset": 12516,
      "componentType": 5126,
      "count": 161,
      "max": [
        -9.895301245066435e-10,
        7.516973710153252e-09,
        2.3283069916502086e-10
      ],
      "min": [
        -9.89530235528946e-10,
        7.516973710153252e-09,
        2.328305881427184e-10
      ],
      "type": "VEC3"
    },
    {
      "bufferView": 6,
      "byteOffset": 17552,
      "componentType": 5126,
      "count": 798,
      "max": [
        16.66666603088379
      ],
      "min": [
        0.0416666679084301
      ],
      "type": "SCALAR"
    },
    {
      "bufferView": 8,
      "byteOffset": 50944,
      "componentType": 5126,
      "count": 798,
      "max": [
        0.047106046229600906,
        0.015264086425304413,
        0.999997079372406,
        0.19871573150157928
      ],
      "min": [
        -0.0824771448969841,
        -0.01376336719840765,
        0.9692943692207336,
        -0.24474836885929108
      ],
      "type": "VEC4"
    },
    {
      "bufferView": 6,
      "byteOffset": 20744,
      "componentType": 5126,
      "count": 24,
      "max": [
        16.625
      ],
      "min": [
        0.0416666679084301
      ],
      "type": "SCALAR"
    },
    {
      "bufferView": 7,
      "byteOffset": 14448,
      "componentType": 5126,
      "count": 24,
      "max": [
        -9.313224635931761e-10,
        0.05192967504262924,
        -0.010096332989633083
      ],
      "min": [
        -9.31322685637781e-10,
        0.05192967504262924,
        -0.010096332989633083
      ],
      "type": "VEC3"
    },
    {
      "bufferView": 6,
      "byteOffset": 20840,
      "componentType": 5126,
      "count": 786,
      "max": [
        16.625
      ],
      "min": [
        0.0416666679084301
      ],
      "type": "SCALAR"
    },
    {
      "bufferView": 8,
      "byteOffset": 63712,
      "componentType": 5126,
      "count": 786,
      "max": [
        0.1551470160484314,
        3.116684865744901e-07,
        8.999587208791127e-08,
        0.9999998211860657
      ],
      "min": [
        -0.07574263215065002,
        2.989944505316089e-07,
        1.896594170602839e-08,
        0.9878913760185242
      ],
      "type": "VEC4"
    },
    {
      "bufferView": 6,
      "byteOffset": 23984,
      "componentType": 5126,
      "count": 795,
      "max": [
        16.66666603088379
      ],
      "min": [
        0.0416666679084301
      ],
      "type": "SCALAR"
    },
    {
      "bufferView": 7,
      "byteOffset": 14736,
      "componentType": 5126,
      "count": 795,
      "max": [
        0.18799112737178802,
        -0.09830541908740997,
        0.44263145327568054
      ],
      "min": [
        -0.14144116640090942,
        -0.24812695384025574,
        -0.019473683089017868
      ],
      "type": "VEC3"
    },
    {
      "bufferView": 6,
      "byteOffset": 27164,
      "componentType": 5126,
      "count": 798,
      "max": [
        16.66666603088379
      ],
      "min": [
        0.0416666679084301
      ],
      "type": "SCALAR"
    },
    {
      "bufferView": 8,
      "byteOffset": 76288,
      "componentType": 5126,
      "count": 798,
      "max": [
        0.8020655512809753,
        0.3371827006340027,
        0.9999808669090271,
        0.4253427982330322
      ],
      "min": [
        -0.7005186676979065,
        -0.2614111602306366,
        -0.6996622681617737,
        -0.42480185627937317
      ],
      "type": "VEC4"
    }
  ],
  "animations": [
    {
      "channels": [
        {
          "sampler": 0,
          "target": {
            "node": 10,
            "path": "translation"
          }
        },
        {
          "sampler": 1,
          "target": {
            "node": 10,
            "path": "rotation"
          }
        },
        {
          "sampler": 2,
          "target": {
            "node": 9,
            "path": "translation"
          }
        },
        {
          "sampler": 3,
          "target": {
            "node": 9,
            "path": "rotation"
          }
        },
        {
          "sampler": 4,
          "target": {
            "node": 11,
            "path": "rotation"
          }
        },
        {
          "sampler": 5,
          "target": {
            "node": 12,
            "path": "rotation"
          }
        },
        {
          "sampler": 6,
          "target": {
            "node": 8,
            "path": "translation"
          }
        },
        {
          "sampler": 7,
          "target": {
            "node": 8,
            "path": "rotation"
          }
        },
        {
          "sampler": 8,
          "target": {
            "node": 13,
            "path": "translation"
          }
        },
        {
          "sampler": 9,
          "target": {
            "node": 13,
            "path": "rotation"
          }
        },
        {
          "sampler": 10,
          "target": {
            "node": 7,
            "path": "translation"
          }
        },
        {
          "sampler": 11,
          "target": {
            "node": 7,
            "path": "rotation"
          }
        }
      ],
      "name": "Scene",
      "samplers": [
        {
          "input": 7,
          "interpolation": "LINEAR",
          "output": 8
        },
        {
          "input": 9,
          "interpolation": "LINEAR",
          "output": 10
        },
        {
          "input": 11,
          "interpolation": "LINEAR",
          "output": 12
        },
        {
          "input": 13,
          "interpolation": "LINEAR",
          "output": 14
        },
        {
          "input": 15,
          "interpolation": "LINEAR",
          "output": 16
        },
        {
          "input": 17,
          "interpolation": "LINEAR",
          "output": 18
        },
        {
          "input": 19,
          "interpolation": "LINEAR",
          "output": 20
        },
        {
          "input": 21,
          "interpolation": "LINEAR",
          "output": 22
        },
        {
          "input": 23,
          "interpolation": "LINEAR",
          "output": 24
        },
        {
          "input": 25,
          "interpolation": "LINEAR",
          "output": 26
        },
        {
          "input": 27,
          "interpolation": "LINEAR",
          "output": 28
        },
        {
          "input": 29,
          "interpolation": "LINEAR",
          "output": 30
        }
      ]
    }
  ],
  "asset": {
    "extras": {
      "author": "Jiffycrew (https://sketchfab.com/jiffycrew)",
      "license": "SKETCHFAB Standard (https://sketchfab.com/licenses)",
      "source": "https://sketchfab.com/3d-models/low-poly-mugil-bf40d6d6e5594c6b9ce041734d2190d9",
      "title": "[Low Poly] Mugil"
    },
    "generator": "Sketchfab-13.26.0",
    "version": "2.0"
  },
  "bufferViews": [
    {
      "buffer": 0,
      "byteLength": 23584,
      "byteStride": 8,
      "name": "shortBufferViews",
      "target": 34962
    },
    {
      "buffer": 0,
      "byteLength": 15264,
      "byteOffset": 23584,
      "name": "floatBufferViews",
      "target": 34963
    },
    {
      "buffer": 0,
      "byteLength": 23584,
      "byteOffset": 38848,
      "byteStride": 8,
      "name": "floatBufferViews",
      "target": 34962
    },
    {
      "buffer": 0,
      "byteLength": 70752,
      "byteOffset": 62432,
      "byteStride": 12,
      "name": "floatBufferViews",
      "target": 34962
    },
    {
      "buffer": 0,
      "byteLength": 47168,
      "byteOffset": 133184,
      "byteStride": 16,
      "name": "floatBufferViews",
      "target": 34962
    },
    {
      "buffer": 0,
      "byteLength": 512,
      "byteOffset": 180352,
      "name": "floatBufferViews"
    },
    {
      "buffer": 0,
      "byteLength": 30356,
      "byteOffset": 180864,
      "name": "floatBufferViews"
    },
    {
      "buffer": 0,
      "byteLength": 24276,
      "byteOffset": 211220,
      "byteStride": 12,
      "name": "floatBufferViews"
    },
    {
      "buffer": 0,
      "byteLength": 89056,
      "byteOffset": 235496,
      "byteStride": 16,
      "name": "floatBufferViews"
    }
  ],
  "buffers": [
    {
      "byteLength": 324552,
      "uri": "scene.bin"
    }
  ],
  "images": [
    {
      "uri": "textures/Mugil_M_baseColor.png"
    }
  ],
  "materials": [
    {
      "doubleSided": true,
      "name": "Mugil_M",
      "pbrMetallicRoughness": {
        "baseColorTexture": {
          "index": 0
        },
        "metallicFactor": 0.278857992710073,
        "roughnessFactor": 0.22133096024673604
      }
    }
  ],
  "meshes": [
    {
      "name": "Mugil_Mugil_M_0",
      "primitives": [
        {
          "attributes": {
            "JOINTS_0": 5,
            "NORMAL": 1,
            "POSITION": 0,
            "TEXCOORD_0": 2,
            "WEIGHTS_0": 6
          },
          "indices": 3,
          "material": 0,
          "mode": 4
        }
      ]
    }
  ],
  "nodes": [
    {
      "children": [
        1
      ],
      "matrix": [
        1.0,
        0.0,
        0.0,
        0.0,
        0.0,
        2.220446049250313e-16,
        -1.0,
        0.0,
        0.0,
        1.0,
        2.220446049250313e-16,
        0.0,
        0.0,
        0.0,
        0.0,
        1.0
      ],
      "name": "Sketchfab_model"
    },
    {
      "children": [
        2
      ],
      "matrix": [
        0.009999999776482582,
        0.0,
        0.0,
        0.0,
        0.0,
        0.0,
        0.009999999776482582,
        0.0,
        0.0,
        -0.009999999776482582,
        0.0,
        0.0,
        0.0,
        0.0,
        0.0,
        1.0
      ],
      "name": "Mugil.fbx"
    },
    {
      "children": [
        3
      ],
      "name": "Object_2"
    },
    {
      "children": [
        4,
        16
      ],
      "name": "RootNode"
    },
    {
      "children": [
        5
      ],
      "name": "Armature",
      "rotation": [
        -0.7071068286895752,
        0.0,
        0.0,
        0.7071067094802856
      ],
      "scale": [
        100.0,
        100.0,
        100.0
      ]
    },
    {
      "children": [
        6,
        15,
        14
      ],
      "name": "Object_5"
    },
    {
      "children": [
        7
      ],
      "name": "_rootJoint"
    },
    {
      "children": [
        8,
        13
      ],
      "name": "Head_00",
      "rotation": [
        0.06263227015733719,
        0.004521062131971121,
        0.9944824576377869,
        -0.08403211086988449
      ],
      "scale": [
        1.0,
        0.9999999403953552,
        1.0
      ],
      "translation": [
        -0.02144489996135235,
        -0.11669105291366577,
        -0.006249094847589731
      ]
    },
    {
      "children": [
        9,
        11,
        12
      ],
      "name": "Body.001_01",
      "rotation": [
        0.021680325269699097,
        0.0010452155256643891,
        0.9986045956611633,
        -0.04814305156469345
      ],
      "translation": [
        -9.89530235528946e-10,
        7.516973710153252e-09,
        2.3283064365386963e-10
      ]
    },
    {
      "children": [
        10
      ],
      "name": "Body.002_02",
      "rotation": [
        -0.0005716172163374722,
        -0.031447555869817734,
        0.018279504030942917,
        0.9993380904197693
      ],
      "translation": [
        -8.73114774924133e-11,
        0.160894513130188,
        3.7834979593753815e-10
      ]
    },
    {
      "name": "Tail_03",
      "rotation": [
        -0.018951596692204475,
        -0.050685815513134,
        -0.055931638926267624,
        0.9969671368598938
      ],
      "scale": [
        1.0000001192092896,
        1.0000001192092896,
        1.0000001192092896
      ],
      "translation": [
        1.0826624929904938e-08,
        0.1326148360967636,
        1.1641532182693481e-10
      ]
    },
    {
      "name": "UnderFin.L_04",
      "rotation": [
        -0.6131144762039185,
        -0.01522870734333992,
        0.008735776878893375,
        0.7897989749908447
      ],
      "scale": [
        1.0,
        1.0000001192092896,
        1.0
      ],
      "translation": [
        0.014325838536024094,
        0.0828033909201622,
        -0.04641573131084442
      ]
    },
    {
      "name": "UnderFin.R_05",
      "rotation": [
        -0.6116521954536438,
        -0.04497706517577171,
        -0.0861547663807869,
        0.7851343750953674
      ],
      "scale": [
        1.0,
        1.0,
        1.0000001192092896
      ],
      "translation": [
        -0.014325843192636967,
        0.0828033834695816,
        -0.04641573131084442
      ]
    },
    {
      "name": "Mouth_06",
      "rotation": [
        0.02107921428978443,
        3.062985456381284e-07,
        6.064766466806759e-08,
        0.9997777938842773
      ],
      "scale": [
        1.0,
        0.9999998807907104,
        0.9999998807907104
      ],
      "translation": [
        -9.313225746154785e-10,
        0.05192967504262924,
        -0.010096332989633083
      ]
    },
    {
      "matrix": [
        100.0,
        0.0,
        0.0,
        0.0,
        0.0,
        6.123233995736766e-15,
        -100.0,
        0.0,
        0.0,
        100.0,
        6.123233995736766e-15,
        0.0,
        0.0,
        0.0,
        -2.9802322387695313e-08,
        1.0
      ],
      "name": "Object_14"
    },
    {
      "mesh": 0,
      "name": "Object_15",
      "skin": 0
    },
    {
      "name": "Mugil",
      "rotation": [
        -0.7071068286895752,
        0.0,
        0.0,
        0.7071067094802856
      ],
      "scale": [
        100.0,
        100.0,
        100.0
      ]
    }
  ],
  "samplers": [
    {
      "magFilter": 9729,
      "minFilter": 9987,
      "wrapS": 10497,
      "wrapT": 10497
    }
  ],
  "scene": 0,
  "scenes": [
    {
      "name": "Sketchfab_Scene",
      "nodes": [
        0
      ]
    }
  ],
  "skins": [
    {
      "inverseBindMatrices": 4,
      "joints": [
        6,
        7,
        8,
        9,
        10,
        11,
        12,
        13
      ],
      "skeleton": 6
    }
  ],
  "textures": [
    {
      "sampler": 0,
      "source": 0
    }
  ]
}
