{
	"asset":{
		"generator":"Khronos glTF Blender I/O v4.0.44",
		"version":"2.0"
	},
	"scene":0,
	"scenes":[
		{
			"name":"Scene",
			"nodes":[
				17
			]
		}
	],
	"nodes":[
		{
			"name":"Object_8",
			"rotation":[
				-0.70710688829422,
				0,
				0,
				0.7071066498756409
			],
			"scale":[
				100,
				100.00001525878906,
				100.00001525878906
			]
		},
		{
			"name":"Mouth_01",
			"rotation":[
				-7.577804694847146e-08,
				0.9999483227729797,
				-0.010168301872909069,
				7.585291768918978e-06
			],
			"scale":[
				0.9999999403953552,
				1.0000001192092896,
				1
			],
			"translation":[
				1.5279857379368877e-08,
				0.347445547580719,
				-0.11463366448879242
			]
		},
		{
			"name":"UnderFin.L_03",
			"rotation":[
				-0.6230051517486572,
				-0.49717211723327637,
				0.4386094808578491,
				0.41509777307510376
			],
			"scale":[
				0.9999998807907104,
				1,
				1
			],
			"translation":[
				0.08846426010131836,
				0.21569935977458954,
				-0.32569172978401184
			]
		},
		{
			"name":"UnderFin.R_04",
			"rotation":[
				-0.6230050921440125,
				0.4971722364425659,
				-0.4386095702648163,
				0.4150976836681366
			],
			"scale":[
				0.9999999403953552,
				0.9999998807907104,
				0.9999998211860657
			],
			"translation":[
				-0.08846314996480942,
				0.21569938957691193,
				-0.32569172978401184
			]
		},
		{
			"name":"UpperFin_06",
			"rotation":[
				0.4464878737926483,
				-7.181164818348407e-08,
				-3.158473305120424e-08,
				0.8947896957397461
			],
			"scale":[
				0.9999999403953552,
				0.9999999403953552,
				0.9999998807907104
			],
			"translation":[
				-3.6259824032214283e-09,
				0.4141649901866913,
				0.3810853362083435
			]
		},
		{
			"name":"Tail_07",
			"rotation":[
				1.7763570511584873e-15,
				-6.66134344170686e-16,
				6.310887241768095e-30,
				1
			],
			"scale":[
				0.9999999403953552,
				1,
				0.9999998807907104
			],
			"translation":[
				5.596493727428806e-14,
				0.6437965035438538,
				2.6561405852554287e-10
			]
		},
		{
			"children":[
				4,
				5
			],
			"name":"Body.002_05",
			"rotation":[
				-1.0321503651766761e-09,
				1.3608803861586694e-08,
				-6.530234388174919e-15,
				1
			],
			"scale":[
				0.9999999403953552,
				1,
				0.9999998807907104
			],
			"translation":[
				7.031789023672144e-14,
				0.5890945196151733,
				-3.035245318971924e-11
			]
		},
		{
			"children":[
				2,
				3,
				6
			],
			"name":"Body.001_02",
			"rotation":[
				-5.778879952345051e-08,
				0.014855245128273964,
				0.9998896718025208,
				1.1215381956475312e-09
			],
			"scale":[
				0.9999999403953552,
				0.9999998211860657,
				1.0000001192092896
			],
			"translation":[
				-7.696621118213898e-14,
				4.5838532969355583e-10,
				1.1641677621909707e-09
			]
		},
		{
			"children":[
				1,
				7
			],
			"name":"Head_00",
			"rotation":[
				-0.6965245008468628,
				1.7332853374796287e-08,
				-7.60165121960199e-08,
				0.7175330519676208
			],
			"scale":[
				1,
				0.9999999403953552,
				0.9999999403953552
			],
			"translation":[
				1.1633551366685424e-07,
				-0.0036553668323904276,
				-0.0843299850821495
			]
		},
		{
			"children":[
				8
			],
			"name":"_rootJoint",
			"rotation":[
				-3.8359463161441454e-08,
				4.249036678061202e-08,
				-7.271915495032097e-16,
				1
			]
		},
		{
			"mesh":0,
			"name":"Object_9",
			"skin":0
		},
		{
			"children":[
				0,
				10,
				9
			],
			"name":"Object_6"
		},
		{
			"children":[
				11
			],
			"name":"Armature",
			"rotation":[
				-0.7071069478988647,
				0,
				0,
				0.7071066498756409
			],
			"scale":[
				19.845861434936523,
				19.845857620239258,
				19.845857620239258
			]
		},
		{
			"name":"StoneSeabream",
			"rotation":[
				-0.70710688829422,
				0,
				0,
				0.7071066498756409
			],
			"scale":[
				100,
				99.99999237060547,
				99.99999237060547
			]
		},
		{
			"children":[
				12,
				13
			],
			"name":"RootNode"
		},
		{
			"children":[
				14
			],
			"name":"Object_2"
		},
		{
			"children":[
				15
			],
			"name":"StoneSeabream.fbx",
			"rotation":[
				0.70710688829422,
				0,
				0,
				0.7071066498756409
			],
			"scale":[
				0.009999999776482582,
				0.010000000707805157,
				0.010000000707805157
			]
		},
		{
			"children":[
				16
			],
			"name":"Sketchfab_model",
			"rotation":[
				-0.70710688829422,
				0,
				0,
				0.7071066498756409
			]
		}
	],
	"animations":[
		{
			"channels":[
				{
					"sampler":0,
					"target":{
						"node":9,
						"path":"translation"
					}
				},
				{
					"sampler":1,
					"target":{
						"node":9,
						"path":"rotation"
					}
				},
				{
					"sampler":2,
					"target":{
						"node":9,
						"path":"scale"
					}
				},
				{
					"sampler":3,
					"target":{
						"node":8,
						"path":"translation"
					}
				},
				{
					"sampler":4,
					"target":{
						"node":8,
						"path":"rotation"
					}
				},
				{
					"sampler":5,
					"target":{
						"node":8,
						"path":"scale"
					}
				},
				{
					"sampler":6,
					"target":{
						"node":1,
						"path":"translation"
					}
				},
				{
					"sampler":7,
					"target":{
						"node":1,
						"path":"rotation"
					}
				},
				{
					"sampler":8,
					"target":{
						"node":1,
						"path":"scale"
					}
				},
				{
					"sampler":9,
					"target":{
						"node":7,
						"path":"translation"
					}
				},
				{
					"sampler":10,
					"target":{
						"node":7,
						"path":"rotation"
					}
				},
				{
					"sampler":11,
					"target":{
						"node":7,
						"path":"scale"
					}
				},
				{
					"sampler":12,
					"target":{
						"node":2,
						"path":"translation"
					}
				},
				{
					"sampler":13,
					"target":{
						"node":2,
						"path":"rotation"
					}
				},
				{
					"sampler":14,
					"target":{
						"node":2,
						"path":"scale"
					}
				},
				{
					"sampler":15,
					"target":{
						"node":3,
						"path":"translation"
					}
				},
				{
					"sampler":16,
					"target":{
						"node":3,
						"path":"rotation"
					}
				},
				{
					"sampler":17,
					"target":{
						"node":3,
						"path":"scale"
					}
				},
				{
					"sampler":18,
					"target":{
						"node":6,
						"path":"translation"
					}
				},
				{
					"sampler":19,
					"target":{
						"node":6,
						"path":"rotation"
					}
				},
				{
					"sampler":20,
					"target":{
						"node":6,
						"path":"scale"
					}
				},
				{
					"sampler":21,
					"target":{
						"node":4,
						"path":"translation"
					}
				},
				{
					"sampler":22,
					"target":{
						"node":4,
						"path":"rotation"
					}
				},
				{
					"sampler":23,
					"target":{
						"node":4,
						"path":"scale"
					}
				},
				{
					"sampler":24,
					"target":{
						"node":5,
						"path":"translation"
					}
				},
				{
					"sampler":25,
					"target":{
						"node":5,
						"path":"rotation"
					}
				},
				{
					"sampler":26,
					"target":{
						"node":5,
						"path":"scale"
					}
				}
			],
			"name":"Scene",
			"samplers":[
				{
					"input":7,
					"interpolation":"STEP",
					"output":8
				},
				{
					"input":7,
					"interpolation":"STEP",
					"output":9
				},
				{
					"input":7,
					"interpolation":"STEP",
					"output":10
				},
				{
					"input":7,
					"interpolation":"STEP",
					"output":11
				},
				{
					"input":7,
					"interpolation":"STEP",
					"output":12
				},
				{
					"input":7,
					"interpolation":"STEP",
					"output":13
				},
				{
					"input":7,
					"interpolation":"STEP",
					"output":14
				},
				{
					"input":15,
					"interpolation":"LINEAR",
					"output":16
				},
				{
					"input":7,
					"interpolation":"STEP",
					"output":17
				},
				{
					"input":7,
					"interpolation":"STEP",
					"output":18
				},
				{
					"input":15,
					"interpolation":"LINEAR",
					"output":19
				},
				{
					"input":7,
					"interpolation":"STEP",
					"output":20
				},
				{
					"input":7,
					"interpolation":"STEP",
					"output":21
				},
				{
					"input":15,
					"interpolation":"LINEAR",
					"output":22
				},
				{
					"input":7,
					"interpolation":"STEP",
					"output":23
				},
				{
					"input":7,
					"interpolation":"STEP",
					"output":24
				},
				{
					"input":15,
					"interpolation":"LINEAR",
					"output":25
				},
				{
					"input":7,
					"interpolation":"STEP",
					"output":26
				},
				{
					"input":7,
					"interpolation":"LINEAR",
					"output":27
				},
				{
					"input":15,
					"interpolation":"LINEAR",
					"output":28
				},
				{
					"input":7,
					"interpolation":"STEP",
					"output":29
				},
				{
					"input":7,
					"interpolation":"LINEAR",
					"output":30
				},
				{
					"input":15,
					"interpolation":"LINEAR",
					"output":31
				},
				{
					"input":7,
					"interpolation":"STEP",
					"output":32
				},
				{
					"input":7,
					"interpolation":"STEP",
					"output":33
				},
				{
					"input":15,
					"interpolation":"LINEAR",
					"output":34
				},
				{
					"input":7,
					"interpolation":"STEP",
					"output":35
				}
			]
		}
	],
	"materials":[
		{
			"doubleSided":true,
			"name":"Stone_Seabream_M",
			"pbrMetallicRoughness":{
				"baseColorTexture":{
					"index":0
				},
				"metallicFactor":0.5714303255081177,
				"roughnessFactor":0.2822835147380829
			}
		}
	],
	"meshes":[
		{
			"name":"StoneSeabream_Stone_Seabream_M_0",
			"primitives":[
				{
					"attributes":{
						"POSITION":0,
						"NORMAL":1,
						"TEXCOORD_0":2,
						"JOINTS_0":3,
						"WEIGHTS_0":4
					},
					"indices":5,
					"material":0
				}
			]
		}
	],
	"textures":[
		{
			"sampler":0,
			"source":0
		}
	],
	"images":[
		{
			"mimeType":"image/png",
			"name":"Stone_Seabream_M_baseColor",
			"uri":"Stone_Seabream_M_baseColor.png"
		}
	],
	"skins":[
		{
			"inverseBindMatrices":6,
			"joints":[
				9,
				8,
				1,
				7,
				2,
				3,
				6,
				4,
				5
			],
			"name":"Object_6"
		}
	],
	"accessors":[
		{
			"bufferView":0,
			"componentType":5126,
			"count":3054,
			"max":[
				0.08008921146392822,
				0.3419657051563263,
				0.139979287981987
			],
			"min":[
				-0.08008941262960434,
				-0.14318928122520447,
				-0.16645117104053497
			],
			"type":"VEC3"
		},
		{
			"bufferView":1,
			"componentType":5126,
			"count":3054,
			"type":"VEC3"
		},
		{
			"bufferView":2,
			"componentType":5126,
			"count":3054,
			"type":"VEC2"
		},
		{
			"bufferView":3,
			"componentType":5121,
			"count":3054,
			"type":"VEC4"
		},
		{
			"bufferView":4,
			"componentType":5126,
			"count":3054,
			"type":"VEC4"
		},
		{
			"bufferView":5,
			"componentType":5123,
			"count":3918,
			"type":"SCALAR"
		},
		{
			"bufferView":6,
			"componentType":5126,
			"count":9,
			"type":"MAT4"
		},
		{
			"bufferView":7,
			"componentType":5126,
			"count":2,
			"max":[
				1.8333333333333333
			],
			"min":[
				0.041666666666666664
			],
			"type":"SCALAR"
		},
		{
			"bufferView":8,
			"componentType":5126,
			"count":2,
			"type":"VEC3"
		},
		{
			"bufferView":9,
			"componentType":5126,
			"count":2,
			"type":"VEC4"
		},
		{
			"bufferView":10,
			"componentType":5126,
			"count":2,
			"type":"VEC3"
		},
		{
			"bufferView":11,
			"componentType":5126,
			"count":2,
			"type":"VEC3"
		},
		{
			"bufferView":12,
			"componentType":5126,
			"count":2,
			"type":"VEC4"
		},
		{
			"bufferView":13,
			"componentType":5126,
			"count":2,
			"type":"VEC3"
		},
		{
			"bufferView":14,
			"componentType":5126,
			"count":2,
			"type":"VEC3"
		},
		{
			"bufferView":15,
			"componentType":5126,
			"count":44,
			"max":[
				1.8333333333333333
			],
			"min":[
				0.041666666666666664
			],
			"type":"SCALAR"
		},
		{
			"bufferView":16,
			"componentType":5126,
			"count":44,
			"type":"VEC4"
		},
		{
			"bufferView":17,
			"componentType":5126,
			"count":2,
			"type":"VEC3"
		},
		{
			"bufferView":18,
			"componentType":5126,
			"count":2,
			"type":"VEC3"
		},
		{
			"bufferView":19,
			"componentType":5126,
			"count":44,
			"type":"VEC4"
		},
		{
			"bufferView":20,
			"componentType":5126,
			"count":2,
			"type":"VEC3"
		},
		{
			"bufferView":21,
			"componentType":5126,
			"count":2,
			"type":"VEC3"
		},
		{
			"bufferView":22,
			"componentType":5126,
			"count":44,
			"type":"VEC4"
		},
		{
			"bufferView":23,
			"componentType":5126,
			"count":2,
			"type":"VEC3"
		},
		{
			"bufferView":24,
			"componentType":5126,
			"count":2,
			"type":"VEC3"
		},
		{
			"bufferView":25,
			"componentType":5126,
			"count":44,
			"type":"VEC4"
		},
		{
			"bufferView":26,
			"componentType":5126,
			"count":2,
			"type":"VEC3"
		},
		{
			"bufferView":27,
			"componentType":5126,
			"count":2,
			"type":"VEC3"
		},
		{
			"bufferView":28,
			"componentType":5126,
			"count":44,
			"type":"VEC4"
		},
		{
			"bufferView":29,
			"componentType":5126,
			"count":2,
			"type":"VEC3"
		},
		{
			"bufferView":30,
			"componentType":5126,
			"count":2,
			"type":"VEC3"
		},
		{
			"bufferView":31,
			"componentType":5126,
			"count":44,
			"type":"VEC4"
		},
		{
			"bufferView":32,
			"componentType":5126,
			"count":2,
			"type":"VEC3"
		},
		{
			"bufferView":33,
			"componentType":5126,
			"count":2,
			"type":"VEC3"
		},
		{
			"bufferView":34,
			"componentType":5126,
			"count":44,
			"type":"VEC4"
		},
		{
			"bufferView":35,
			"componentType":5126,
			"count":2,
			"type":"VEC3"
		}
	],
	"bufferViews":[
		{
			"buffer":0,
			"byteLength":36648,
			"byteOffset":0,
			"target":34962
		},
		{
			"buffer":0,
			"byteLength":36648,
			"byteOffset":36648,
			"target":34962
		},
		{
			"buffer":0,
			"byteLength":24432,
			"byteOffset":73296,
			"target":34962
		},
		{
			"buffer":0,
			"byteLength":12216,
			"byteOffset":97728,
			"target":34962
		},
		{
			"buffer":0,
			"byteLength":48864,
			"byteOffset":109944,
			"target":34962
		},
		{
			"buffer":0,
			"byteLength":7836,
			"byteOffset":158808,
			"target":34963
		},
		{
			"buffer":0,
			"byteLength":576,
			"byteOffset":166644
		},
		{
			"buffer":0,
			"byteLength":8,
			"byteOffset":167220
		},
		{
			"buffer":0,
			"byteLength":24,
			"byteOffset":167228
		},
		{
			"buffer":0,
			"byteLength":32,
			"byteOffset":167252
		},
		{
			"buffer":0,
			"byteLength":24,
			"byteOffset":167284
		},
		{
			"buffer":0,
			"byteLength":24,
			"byteOffset":167308
		},
		{
			"buffer":0,
			"byteLength":32,
			"byteOffset":167332
		},
		{
			"buffer":0,
			"byteLength":24,
			"byteOffset":167364
		},
		{
			"buffer":0,
			"byteLength":24,
			"byteOffset":167388
		},
		{
			"buffer":0,
			"byteLength":176,
			"byteOffset":167412
		},
		{
			"buffer":0,
			"byteLength":704,
			"byteOffset":167588
		},
		{
			"buffer":0,
			"byteLength":24,
			"byteOffset":168292
		},
		{
			"buffer":0,
			"byteLength":24,
			"byteOffset":168316
		},
		{
			"buffer":0,
			"byteLength":704,
			"byteOffset":168340
		},
		{
			"buffer":0,
			"byteLength":24,
			"byteOffset":169044
		},
		{
			"buffer":0,
			"byteLength":24,
			"byteOffset":169068
		},
		{
			"buffer":0,
			"byteLength":704,
			"byteOffset":169092
		},
		{
			"buffer":0,
			"byteLength":24,
			"byteOffset":169796
		},
		{
			"buffer":0,
			"byteLength":24,
			"byteOffset":169820
		},
		{
			"buffer":0,
			"byteLength":704,
			"byteOffset":169844
		},
		{
			"buffer":0,
			"byteLength":24,
			"byteOffset":170548
		},
		{
			"buffer":0,
			"byteLength":24,
			"byteOffset":170572
		},
		{
			"buffer":0,
			"byteLength":704,
			"byteOffset":170596
		},
		{
			"buffer":0,
			"byteLength":24,
			"byteOffset":171300
		},
		{
			"buffer":0,
			"byteLength":24,
			"byteOffset":171324
		},
		{
			"buffer":0,
			"byteLength":704,
			"byteOffset":171348
		},
		{
			"buffer":0,
			"byteLength":24,
			"byteOffset":172052
		},
		{
			"buffer":0,
			"byteLength":24,
			"byteOffset":172076
		},
		{
			"buffer":0,
			"byteLength":704,
			"byteOffset":172100
		},
		{
			"buffer":0,
			"byteLength":24,
			"byteOffset":172804
		}
	],
	"samplers":[
		{
			"magFilter":9729,
			"minFilter":9987
		}
	],
	"buffers":[
		{
			"byteLength":172828,
			"uri":"scene.bin"
		}
	]
}
