{
	"asset":{
		"generator":"Khronos glTF Blender I/O v4.0.44",
		"version":"2.0"
	},
	"scene":0,
	"scenes":[
		{
			"name":"Scene",
			"nodes":[
				18
			]
		}
	],
	"nodes":[
		{
			"name":"Object_8",
			"rotation":[
				-0.70710688829422,
				0,
				0,
				0.7071066498756409
			],
			"scale":[
				100,
				100.00001525878906,
				100.00001525878906
			]
		},
		{
			"name":"Tail_03",
			"rotation":[
				-4.440892098500626e-14,
				3.197442310920451e-14,
				-5.855389816928756e-21,
				1
			],
			"translation":[
				-9.978773178858508e-15,
				2.5637545585632324,
				-1.4674623549735394e-13
			]
		},
		{
			"name":"UpperFin_04",
			"rotation":[
				0.5269927978515625,
				-1.3580208246821712e-07,
				4.635304584610367e-09,
				0.8498697280883789
			],
			"scale":[
				1,
				1.0000001192092896,
				1
			],
			"translation":[
				-1.168819636632179e-07,
				1.2497608661651611,
				0.6933018565177917
			]
		},
		{
			"name":"BackFin_05",
			"rotation":[
				-0.24774596095085144,
				-2.7030330329580465e-07,
				2.7354564835491146e-08,
				0.9688250422477722
			],
			"translation":[
				1.327045850985087e-07,
				1.4640374183654785,
				-0.7871561050415039
			]
		},
		{
			"children":[
				1,
				2,
				3
			],
			"name":"Body.002_02",
			"rotation":[
				-1.1430580926230505e-09,
				-3.552713678800501e-15,
				-3.55271240825108e-15,
				1
			],
			"translation":[
				4.406246756892031e-15,
				2.1551222801208496,
				-2.9963207470729003e-09
			]
		},
		{
			"name":"UnderFin.R_06",
			"rotation":[
				0.08824382722377777,
				0.9130776524543762,
				-0.39290285110473633,
				0.06426133960485458
			],
			"scale":[
				1,
				0.9999998807907104,
				1
			],
			"translation":[
				0.16369636356830597,
				0.17910337448120117,
				-0.80885249376297
			]
		},
		{
			"name":"UnderFin.L_07",
			"rotation":[
				0.0882437601685524,
				-0.9130777716636658,
				0.39290282130241394,
				0.06426112353801727
			],
			"scale":[
				1,
				0.9999999403953552,
				1.0000001192092896
			],
			"translation":[
				-0.16369347274303436,
				0.17910337448120117,
				-0.8088525533676147
			]
		},
		{
			"children":[
				4,
				5,
				6
			],
			"name":"Body.001_01",
			"rotation":[
				-8.42937097900176e-08,
				1.0587911840678754e-22,
				1,
				1.9270788349467463e-16
			],
			"translation":[
				9.280286728904799e-16,
				1.341104507446289e-07,
				-2.4581674473722614e-09
			]
		},
		{
			"name":"Mouth_08",
			"rotation":[
				1.8545366131661467e-08,
				0.9954536557197571,
				0.0952475368976593,
				1.93822003780042e-07
			],
			"scale":[
				1,
				1.0000001192092896,
				0.9999999403953552
			],
			"translation":[
				-1.0538168645005119e-13,
				1.0110652446746826,
				-0.3659093976020813
			]
		},
		{
			"children":[
				7,
				8
			],
			"name":"Head_00",
			"rotation":[
				-0.7071066498756409,
				-1.2101615709525504e-08,
				-1.2101613933168665e-08,
				0.70710688829422
			],
			"translation":[
				1.1627334828290259e-07,
				-4.470348713425665e-08,
				-0.13060830533504486
			]
		},
		{
			"children":[
				9
			],
			"name":"_rootJoint",
			"rotation":[
				-8.557137221032463e-09,
				1.7114272665708086e-08,
				-2.928982756881431e-16,
				1
			]
		},
		{
			"mesh":0,
			"name":"Object_9",
			"skin":0
		},
		{
			"children":[
				0,
				11,
				10
			],
			"name":"Object_6"
		},
		{
			"children":[
				12
			],
			"name":"Armature",
			"rotation":[
				-0.70710688829422,
				0,
				0,
				0.7071066498756409
			],
			"scale":[
				8.57381820678711,
				8.573817253112793,
				8.573817253112793
			]
		},
		{
			"name":"Seabass",
			"rotation":[
				-0.70710688829422,
				0,
				0,
				0.7071066498756409
			],
			"scale":[
				100,
				99.99999237060547,
				99.99999237060547
			]
		},
		{
			"children":[
				13,
				14
			],
			"name":"RootNode"
		},
		{
			"children":[
				15
			],
			"name":"Object_2"
		},
		{
			"children":[
				16
			],
			"name":"Seabass.fbx",
			"rotation":[
				0.70710688829422,
				0,
				0,
				0.7071066498756409
			],
			"scale":[
				0.009999999776482582,
				0.010000000707805157,
				0.010000000707805157
			]
		},
		{
			"children":[
				17
			],
			"name":"Sketchfab_model",
			"rotation":[
				-0.70710688829422,
				0,
				0,
				0.7071066498756409
			]
		}
	],
	"animations":[
		{
			"channels":[
				{
					"sampler":0,
					"target":{
						"node":10,
						"path":"translation"
					}
				},
				{
					"sampler":1,
					"target":{
						"node":10,
						"path":"rotation"
					}
				},
				{
					"sampler":2,
					"target":{
						"node":10,
						"path":"scale"
					}
				},
				{
					"sampler":3,
					"target":{
						"node":9,
						"path":"translation"
					}
				},
				{
					"sampler":4,
					"target":{
						"node":9,
						"path":"rotation"
					}
				},
				{
					"sampler":5,
					"target":{
						"node":9,
						"path":"scale"
					}
				},
				{
					"sampler":6,
					"target":{
						"node":7,
						"path":"translation"
					}
				},
				{
					"sampler":7,
					"target":{
						"node":7,
						"path":"rotation"
					}
				},
				{
					"sampler":8,
					"target":{
						"node":7,
						"path":"scale"
					}
				},
				{
					"sampler":9,
					"target":{
						"node":4,
						"path":"translation"
					}
				},
				{
					"sampler":10,
					"target":{
						"node":4,
						"path":"rotation"
					}
				},
				{
					"sampler":11,
					"target":{
						"node":4,
						"path":"scale"
					}
				},
				{
					"sampler":12,
					"target":{
						"node":1,
						"path":"translation"
					}
				},
				{
					"sampler":13,
					"target":{
						"node":1,
						"path":"rotation"
					}
				},
				{
					"sampler":14,
					"target":{
						"node":1,
						"path":"scale"
					}
				},
				{
					"sampler":15,
					"target":{
						"node":2,
						"path":"translation"
					}
				},
				{
					"sampler":16,
					"target":{
						"node":2,
						"path":"rotation"
					}
				},
				{
					"sampler":17,
					"target":{
						"node":2,
						"path":"scale"
					}
				},
				{
					"sampler":18,
					"target":{
						"node":3,
						"path":"translation"
					}
				},
				{
					"sampler":19,
					"target":{
						"node":3,
						"path":"rotation"
					}
				},
				{
					"sampler":20,
					"target":{
						"node":3,
						"path":"scale"
					}
				},
				{
					"sampler":21,
					"target":{
						"node":5,
						"path":"translation"
					}
				},
				{
					"sampler":22,
					"target":{
						"node":5,
						"path":"rotation"
					}
				},
				{
					"sampler":23,
					"target":{
						"node":5,
						"path":"scale"
					}
				},
				{
					"sampler":24,
					"target":{
						"node":6,
						"path":"translation"
					}
				},
				{
					"sampler":25,
					"target":{
						"node":6,
						"path":"rotation"
					}
				},
				{
					"sampler":26,
					"target":{
						"node":6,
						"path":"scale"
					}
				},
				{
					"sampler":27,
					"target":{
						"node":8,
						"path":"translation"
					}
				},
				{
					"sampler":28,
					"target":{
						"node":8,
						"path":"rotation"
					}
				},
				{
					"sampler":29,
					"target":{
						"node":8,
						"path":"scale"
					}
				}
			],
			"name":"Scene",
			"samplers":[
				{
					"input":7,
					"interpolation":"STEP",
					"output":8
				},
				{
					"input":7,
					"interpolation":"STEP",
					"output":9
				},
				{
					"input":7,
					"interpolation":"STEP",
					"output":10
				},
				{
					"input":7,
					"interpolation":"STEP",
					"output":11
				},
				{
					"input":7,
					"interpolation":"STEP",
					"output":12
				},
				{
					"input":7,
					"interpolation":"STEP",
					"output":13
				},
				{
					"input":7,
					"interpolation":"STEP",
					"output":14
				},
				{
					"input":15,
					"interpolation":"LINEAR",
					"output":16
				},
				{
					"input":7,
					"interpolation":"STEP",
					"output":17
				},
				{
					"input":7,
					"interpolation":"STEP",
					"output":18
				},
				{
					"input":15,
					"interpolation":"LINEAR",
					"output":19
				},
				{
					"input":7,
					"interpolation":"STEP",
					"output":20
				},
				{
					"input":7,
					"interpolation":"LINEAR",
					"output":21
				},
				{
					"input":15,
					"interpolation":"LINEAR",
					"output":22
				},
				{
					"input":7,
					"interpolation":"STEP",
					"output":23
				},
				{
					"input":7,
					"interpolation":"STEP",
					"output":24
				},
				{
					"input":15,
					"interpolation":"LINEAR",
					"output":25
				},
				{
					"input":7,
					"interpolation":"STEP",
					"output":26
				},
				{
					"input":7,
					"interpolation":"STEP",
					"output":27
				},
				{
					"input":15,
					"interpolation":"LINEAR",
					"output":28
				},
				{
					"input":7,
					"interpolation":"STEP",
					"output":29
				},
				{
					"input":7,
					"interpolation":"STEP",
					"output":30
				},
				{
					"input":15,
					"interpolation":"LINEAR",
					"output":31
				},
				{
					"input":7,
					"interpolation":"STEP",
					"output":32
				},
				{
					"input":7,
					"interpolation":"STEP",
					"output":33
				},
				{
					"input":15,
					"interpolation":"LINEAR",
					"output":34
				},
				{
					"input":7,
					"interpolation":"STEP",
					"output":35
				},
				{
					"input":7,
					"interpolation":"STEP",
					"output":36
				},
				{
					"input":15,
					"interpolation":"LINEAR",
					"output":37
				},
				{
					"input":7,
					"interpolation":"STEP",
					"output":38
				}
			]
		}
	],
	"materials":[
		{
			"doubleSided":true,
			"name":"Seabass_M",
			"pbrMetallicRoughness":{
				"baseColorTexture":{
					"index":0
				},
				"metallicFactor":0.5165730118751526,
				"roughnessFactor":0.4102839231491089
			}
		}
	],
	"meshes":[
		{
			"name":"Seabass_Seabass_M_0",
			"primitives":[
				{
					"attributes":{
						"POSITION":0,
						"NORMAL":1,
						"TEXCOORD_0":2,
						"JOINTS_0":3,
						"WEIGHTS_0":4
					},
					"indices":5,
					"material":0
				}
			]
		}
	],
	"textures":[
		{
			"sampler":0,
			"source":0
		}
	],
	"images":[
		{
			"mimeType":"image/png",
			"name":"Seabass_M_baseColor",
			"uri":"Seabass_M_baseColor.png"
		}
	],
	"skins":[
		{
			"inverseBindMatrices":6,
			"joints":[
				10,
				9,
				7,
				4,
				1,
				2,
				3,
				5,
				6,
				8
			],
			"name":"Object_6"
		}
	],
	"accessors":[
		{
			"bufferView":0,
			"componentType":5126,
			"count":2876,
			"max":[
				0.10890617221593857,
				0.5805080533027649,
				0.13051795959472656
			],
			"min":[
				-0.10890636593103409,
				-0.21264801919460297,
				-0.17550621926784515
			],
			"type":"VEC3"
		},
		{
			"bufferView":1,
			"componentType":5126,
			"count":2876,
			"type":"VEC3"
		},
		{
			"bufferView":2,
			"componentType":5126,
			"count":2876,
			"type":"VEC2"
		},
		{
			"bufferView":3,
			"componentType":5121,
			"count":2876,
			"type":"VEC4"
		},
		{
			"bufferView":4,
			"componentType":5126,
			"count":2876,
			"type":"VEC4"
		},
		{
			"bufferView":5,
			"componentType":5123,
			"count":3744,
			"type":"SCALAR"
		},
		{
			"bufferView":6,
			"componentType":5126,
			"count":10,
			"type":"MAT4"
		},
		{
			"bufferView":7,
			"componentType":5126,
			"count":2,
			"max":[
				1.75
			],
			"min":[
				0.041666666666666664
			],
			"type":"SCALAR"
		},
		{
			"bufferView":8,
			"componentType":5126,
			"count":2,
			"type":"VEC3"
		},
		{
			"bufferView":9,
			"componentType":5126,
			"count":2,
			"type":"VEC4"
		},
		{
			"bufferView":10,
			"componentType":5126,
			"count":2,
			"type":"VEC3"
		},
		{
			"bufferView":11,
			"componentType":5126,
			"count":2,
			"type":"VEC3"
		},
		{
			"bufferView":12,
			"componentType":5126,
			"count":2,
			"type":"VEC4"
		},
		{
			"bufferView":13,
			"componentType":5126,
			"count":2,
			"type":"VEC3"
		},
		{
			"bufferView":14,
			"componentType":5126,
			"count":2,
			"type":"VEC3"
		},
		{
			"bufferView":15,
			"componentType":5126,
			"count":42,
			"max":[
				1.75
			],
			"min":[
				0.041666666666666664
			],
			"type":"SCALAR"
		},
		{
			"bufferView":16,
			"componentType":5126,
			"count":42,
			"type":"VEC4"
		},
		{
			"bufferView":17,
			"componentType":5126,
			"count":2,
			"type":"VEC3"
		},
		{
			"bufferView":18,
			"componentType":5126,
			"count":2,
			"type":"VEC3"
		},
		{
			"bufferView":19,
			"componentType":5126,
			"count":42,
			"type":"VEC4"
		},
		{
			"bufferView":20,
			"componentType":5126,
			"count":2,
			"type":"VEC3"
		},
		{
			"bufferView":21,
			"componentType":5126,
			"count":2,
			"type":"VEC3"
		},
		{
			"bufferView":22,
			"componentType":5126,
			"count":42,
			"type":"VEC4"
		},
		{
			"bufferView":23,
			"componentType":5126,
			"count":2,
			"type":"VEC3"
		},
		{
			"bufferView":24,
			"componentType":5126,
			"count":2,
			"type":"VEC3"
		},
		{
			"bufferView":25,
			"componentType":5126,
			"count":42,
			"type":"VEC4"
		},
		{
			"bufferView":26,
			"componentType":5126,
			"count":2,
			"type":"VEC3"
		},
		{
			"bufferView":27,
			"componentType":5126,
			"count":2,
			"type":"VEC3"
		},
		{
			"bufferView":28,
			"componentType":5126,
			"count":42,
			"type":"VEC4"
		},
		{
			"bufferView":29,
			"componentType":5126,
			"count":2,
			"type":"VEC3"
		},
		{
			"bufferView":30,
			"componentType":5126,
			"count":2,
			"type":"VEC3"
		},
		{
			"bufferView":31,
			"componentType":5126,
			"count":42,
			"type":"VEC4"
		},
		{
			"bufferView":32,
			"componentType":5126,
			"count":2,
			"type":"VEC3"
		},
		{
			"bufferView":33,
			"componentType":5126,
			"count":2,
			"type":"VEC3"
		},
		{
			"bufferView":34,
			"componentType":5126,
			"count":42,
			"type":"VEC4"
		},
		{
			"bufferView":35,
			"componentType":5126,
			"count":2,
			"type":"VEC3"
		},
		{
			"bufferView":36,
			"componentType":5126,
			"count":2,
			"type":"VEC3"
		},
		{
			"bufferView":37,
			"componentType":5126,
			"count":42,
			"type":"VEC4"
		},
		{
			"bufferView":38,
			"componentType":5126,
			"count":2,
			"type":"VEC3"
		}
	],
	"bufferViews":[
		{
			"buffer":0,
			"byteLength":34512,
			"byteOffset":0,
			"target":34962
		},
		{
			"buffer":0,
			"byteLength":34512,
			"byteOffset":34512,
			"target":34962
		},
		{
			"buffer":0,
			"byteLength":23008,
			"byteOffset":69024,
			"target":34962
		},
		{
			"buffer":0,
			"byteLength":11504,
			"byteOffset":92032,
			"target":34962
		},
		{
			"buffer":0,
			"byteLength":46016,
			"byteOffset":103536,
			"target":34962
		},
		{
			"buffer":0,
			"byteLength":7488,
			"byteOffset":149552,
			"target":34963
		},
		{
			"buffer":0,
			"byteLength":640,
			"byteOffset":157040
		},
		{
			"buffer":0,
			"byteLength":8,
			"byteOffset":157680
		},
		{
			"buffer":0,
			"byteLength":24,
			"byteOffset":157688
		},
		{
			"buffer":0,
			"byteLength":32,
			"byteOffset":157712
		},
		{
			"buffer":0,
			"byteLength":24,
			"byteOffset":157744
		},
		{
			"buffer":0,
			"byteLength":24,
			"byteOffset":157768
		},
		{
			"buffer":0,
			"byteLength":32,
			"byteOffset":157792
		},
		{
			"buffer":0,
			"byteLength":24,
			"byteOffset":157824
		},
		{
			"buffer":0,
			"byteLength":24,
			"byteOffset":157848
		},
		{
			"buffer":0,
			"byteLength":168,
			"byteOffset":157872
		},
		{
			"buffer":0,
			"byteLength":672,
			"byteOffset":158040
		},
		{
			"buffer":0,
			"byteLength":24,
			"byteOffset":158712
		},
		{
			"buffer":0,
			"byteLength":24,
			"byteOffset":158736
		},
		{
			"buffer":0,
			"byteLength":672,
			"byteOffset":158760
		},
		{
			"buffer":0,
			"byteLength":24,
			"byteOffset":159432
		},
		{
			"buffer":0,
			"byteLength":24,
			"byteOffset":159456
		},
		{
			"buffer":0,
			"byteLength":672,
			"byteOffset":159480
		},
		{
			"buffer":0,
			"byteLength":24,
			"byteOffset":160152
		},
		{
			"buffer":0,
			"byteLength":24,
			"byteOffset":160176
		},
		{
			"buffer":0,
			"byteLength":672,
			"byteOffset":160200
		},
		{
			"buffer":0,
			"byteLength":24,
			"byteOffset":160872
		},
		{
			"buffer":0,
			"byteLength":24,
			"byteOffset":160896
		},
		{
			"buffer":0,
			"byteLength":672,
			"byteOffset":160920
		},
		{
			"buffer":0,
			"byteLength":24,
			"byteOffset":161592
		},
		{
			"buffer":0,
			"byteLength":24,
			"byteOffset":161616
		},
		{
			"buffer":0,
			"byteLength":672,
			"byteOffset":161640
		},
		{
			"buffer":0,
			"byteLength":24,
			"byteOffset":162312
		},
		{
			"buffer":0,
			"byteLength":24,
			"byteOffset":162336
		},
		{
			"buffer":0,
			"byteLength":672,
			"byteOffset":162360
		},
		{
			"buffer":0,
			"byteLength":24,
			"byteOffset":163032
		},
		{
			"buffer":0,
			"byteLength":24,
			"byteOffset":163056
		},
		{
			"buffer":0,
			"byteLength":672,
			"byteOffset":163080
		},
		{
			"buffer":0,
			"byteLength":24,
			"byteOffset":163752
		}
	],
	"samplers":[
		{
			"magFilter":9729,
			"minFilter":9987
		}
	],
	"buffers":[
		{
			"byteLength":163776,
			"uri":"scene.bin"
		}
	]
}
