{
	"asset":{
		"generator":"Khronos glTF Blender I/O v4.0.44",
		"version":"2.0"
	},
	"scene":0,
	"scenes":[
		{
			"name":"Scene",
			"nodes":[
				16
			]
		}
	],
	"nodes":[
		{
			"name":"Object_14",
			"rotation":[
				-0.70710688829422,
				0,
				0,
				0.7071066498756409
			],
			"scale":[
				100,
				100.00001525878906,
				100.00001525878906
			]
		},
		{
			"name":"Tail_03",
			"rotation":[
				0,
				-1.7517299826632678e-36,
				5.99534287967969e-28,
				1
			],
			"translation":[
				1.5777218104420236e-30,
				0.2413157820701599,
				-1.4210854715202004e-14
			]
		},
		{
			"name":"UnderFin.L_04",
			"rotation":[
				-0.3179909586906433,
				-0.11006555706262589,
				-0.1264764964580536,
				0.933151125907898
			],
			"scale":[
				0.9999999403953552,
				0.9999999403953552,
				1
			],
			"translation":[
				0.019645841792225838,
				0.03493749350309372,
				-0.08945769816637039
			]
		},
		{
			"name":"UnderFin.R_05",
			"rotation":[
				-0.3179909586906433,
				0.11006555706262589,
				0.1264764964580536,
				0.933151125907898
			],
			"scale":[
				0.9999999403953552,
				0.9999999403953552,
				1
			],
			"translation":[
				-0.019645841792225838,
				0.03493749350309372,
				-0.08945769816637039
			]
		},
		{
			"children":[
				1,
				2,
				3
			],
			"name":"Body.002_02",
			"rotation":[
				3.566071171690055e-08,
				5.415004796088241e-22,
				1.444253177880321e-14,
				1
			],
			"translation":[
				2.4352191175109383e-21,
				0.15455909073352814,
				-1.4210854715202004e-14
			]
		},
		{
			"children":[
				4
			],
			"name":"Body.001_01",
			"rotation":[
				1.775929092673323e-07,
				7.105429898699844e-15,
				1,
				1.266617832753475e-14
			],
			"translation":[
				2.7916247177811214e-15,
				1.0519363158323358e-14,
				6.892925341617229e-09
			]
		},
		{
			"name":"Mouth_06",
			"rotation":[
				0.17067936062812805,
				4.842972316509986e-07,
				2.326760828452734e-08,
				0.9853266477584839
			],
			"scale":[
				1,
				0.9999999403953552,
				0.9999998807907104
			],
			"translation":[
				-2.1721428211662897e-08,
				0.07483640313148499,
				-0.06115512549877167
			]
		},
		{
			"children":[
				5,
				6
			],
			"name":"Head_00",
			"rotation":[
				1.1347550810114626e-07,
				0.70710688829422,
				0.7071066498756409,
				1.3767879636361613e-07
			],
			"translation":[
				-4.514848495063006e-09,
				0,
				0.1319030076265335
			]
		},
		{
			"children":[
				7
			],
			"name":"_rootJoint",
			"rotation":[
				-8.557137221032463e-09,
				1.7114272665708086e-08,
				-2.928982756881431e-16,
				1
			]
		},
		{
			"mesh":0,
			"name":"Object_15",
			"skin":0
		},
		{
			"children":[
				0,
				9,
				8
			],
			"name":"Object_5"
		},
		{
			"children":[
				10
			],
			"name":"Armature",
			"rotation":[
				-0.70710688829422,
				0,
				0,
				0.7071066498756409
			],
			"scale":[
				100,
				99.99998474121094,
				99.99998474121094
			]
		},
		{
			"name":"Salmon",
			"rotation":[
				-0.70710688829422,
				0,
				0,
				0.7071066498756409
			],
			"scale":[
				100,
				99.99998474121094,
				99.99998474121094
			]
		},
		{
			"children":[
				11,
				12
			],
			"name":"RootNode"
		},
		{
			"children":[
				13
			],
			"name":"Object_2"
		},
		{
			"children":[
				14
			],
			"name":"Salmon.fbx",
			"rotation":[
				0.70710688829422,
				0,
				0,
				0.7071066498756409
			],
			"scale":[
				0.009999998845160007,
				0.010000000707805157,
				0.010000000707805157
			]
		},
		{
			"children":[
				15
			],
			"name":"Sketchfab_model",
			"rotation":[
				-0.70710688829422,
				0,
				0,
				0.7071066498756409
			],
			"scale":[
				3.8115291595458984,
				3.8115296363830566,
				3.8115296363830566
			]
		}
	],
	"animations":[
		{
			"channels":[
				{
					"sampler":0,
					"target":{
						"node":8,
						"path":"translation"
					}
				},
				{
					"sampler":1,
					"target":{
						"node":8,
						"path":"rotation"
					}
				},
				{
					"sampler":2,
					"target":{
						"node":8,
						"path":"scale"
					}
				},
				{
					"sampler":3,
					"target":{
						"node":7,
						"path":"translation"
					}
				},
				{
					"sampler":4,
					"target":{
						"node":7,
						"path":"rotation"
					}
				},
				{
					"sampler":5,
					"target":{
						"node":7,
						"path":"scale"
					}
				},
				{
					"sampler":6,
					"target":{
						"node":5,
						"path":"translation"
					}
				},
				{
					"sampler":7,
					"target":{
						"node":5,
						"path":"rotation"
					}
				},
				{
					"sampler":8,
					"target":{
						"node":5,
						"path":"scale"
					}
				},
				{
					"sampler":9,
					"target":{
						"node":4,
						"path":"translation"
					}
				},
				{
					"sampler":10,
					"target":{
						"node":4,
						"path":"rotation"
					}
				},
				{
					"sampler":11,
					"target":{
						"node":4,
						"path":"scale"
					}
				},
				{
					"sampler":12,
					"target":{
						"node":1,
						"path":"translation"
					}
				},
				{
					"sampler":13,
					"target":{
						"node":1,
						"path":"rotation"
					}
				},
				{
					"sampler":14,
					"target":{
						"node":1,
						"path":"scale"
					}
				},
				{
					"sampler":15,
					"target":{
						"node":2,
						"path":"translation"
					}
				},
				{
					"sampler":16,
					"target":{
						"node":2,
						"path":"rotation"
					}
				},
				{
					"sampler":17,
					"target":{
						"node":2,
						"path":"scale"
					}
				},
				{
					"sampler":18,
					"target":{
						"node":3,
						"path":"translation"
					}
				},
				{
					"sampler":19,
					"target":{
						"node":3,
						"path":"rotation"
					}
				},
				{
					"sampler":20,
					"target":{
						"node":3,
						"path":"scale"
					}
				},
				{
					"sampler":21,
					"target":{
						"node":6,
						"path":"translation"
					}
				},
				{
					"sampler":22,
					"target":{
						"node":6,
						"path":"rotation"
					}
				},
				{
					"sampler":23,
					"target":{
						"node":6,
						"path":"scale"
					}
				}
			],
			"name":"Scene",
			"samplers":[
				{
					"input":7,
					"interpolation":"STEP",
					"output":8
				},
				{
					"input":7,
					"interpolation":"STEP",
					"output":9
				},
				{
					"input":7,
					"interpolation":"STEP",
					"output":10
				},
				{
					"input":7,
					"interpolation":"STEP",
					"output":11
				},
				{
					"input":7,
					"interpolation":"STEP",
					"output":12
				},
				{
					"input":7,
					"interpolation":"STEP",
					"output":13
				},
				{
					"input":7,
					"interpolation":"STEP",
					"output":14
				},
				{
					"input":15,
					"interpolation":"LINEAR",
					"output":16
				},
				{
					"input":7,
					"interpolation":"STEP",
					"output":17
				},
				{
					"input":7,
					"interpolation":"LINEAR",
					"output":18
				},
				{
					"input":15,
					"interpolation":"LINEAR",
					"output":19
				},
				{
					"input":7,
					"interpolation":"STEP",
					"output":20
				},
				{
					"input":7,
					"interpolation":"LINEAR",
					"output":21
				},
				{
					"input":15,
					"interpolation":"LINEAR",
					"output":22
				},
				{
					"input":7,
					"interpolation":"STEP",
					"output":23
				},
				{
					"input":7,
					"interpolation":"STEP",
					"output":24
				},
				{
					"input":15,
					"interpolation":"LINEAR",
					"output":25
				},
				{
					"input":7,
					"interpolation":"STEP",
					"output":26
				},
				{
					"input":7,
					"interpolation":"STEP",
					"output":27
				},
				{
					"input":15,
					"interpolation":"LINEAR",
					"output":28
				},
				{
					"input":7,
					"interpolation":"STEP",
					"output":29
				},
				{
					"input":7,
					"interpolation":"STEP",
					"output":30
				},
				{
					"input":15,
					"interpolation":"LINEAR",
					"output":31
				},
				{
					"input":7,
					"interpolation":"STEP",
					"output":32
				}
			]
		}
	],
	"materials":[
		{
			"doubleSided":true,
			"name":"Salmon_M",
			"pbrMetallicRoughness":{
				"baseColorTexture":{
					"index":0
				},
				"metallicFactor":0.2788580060005188,
				"roughnessFactor":0.4163791835308075
			}
		}
	],
	"meshes":[
		{
			"name":"Salmon_Salmon_M_0",
			"primitives":[
				{
					"attributes":{
						"POSITION":0,
						"NORMAL":1,
						"TEXCOORD_0":2,
						"JOINTS_0":3,
						"WEIGHTS_0":4
					},
					"indices":5,
					"material":0
				}
			]
		}
	],
	"textures":[
		{
			"sampler":0,
			"source":0
		}
	],
	"images":[
		{
			"mimeType":"image/png",
			"name":"Salmon_M_baseColor",
			"uri":"Salmon_M_baseColor.png"
		}
	],
	"skins":[
		{
			"inverseBindMatrices":6,
			"joints":[
				8,
				7,
				5,
				4,
				1,
				2,
				3,
				6
			],
			"name":"Object_5"
		}
	],
	"accessors":[
		{
			"bufferView":0,
			"componentType":5126,
			"count":3008,
			"max":[
				0.4147135615348816,
				1.2890470027923584,
				0.5127548575401306
			],
			"min":[
				-0.4147135019302368,
				-1.8226662874221802,
				-0.5407063364982605
			],
			"type":"VEC3"
		},
		{
			"bufferView":1,
			"componentType":5126,
			"count":3008,
			"type":"VEC3"
		},
		{
			"bufferView":2,
			"componentType":5126,
			"count":3008,
			"type":"VEC2"
		},
		{
			"bufferView":3,
			"componentType":5121,
			"count":3008,
			"type":"VEC4"
		},
		{
			"bufferView":4,
			"componentType":5126,
			"count":3008,
			"type":"VEC4"
		},
		{
			"bufferView":5,
			"componentType":5123,
			"count":3930,
			"type":"SCALAR"
		},
		{
			"bufferView":6,
			"componentType":5126,
			"count":8,
			"type":"MAT4"
		},
		{
			"bufferView":7,
			"componentType":5126,
			"count":2,
			"max":[
				5
			],
			"min":[
				0.041666666666666664
			],
			"type":"SCALAR"
		},
		{
			"bufferView":8,
			"componentType":5126,
			"count":2,
			"type":"VEC3"
		},
		{
			"bufferView":9,
			"componentType":5126,
			"count":2,
			"type":"VEC4"
		},
		{
			"bufferView":10,
			"componentType":5126,
			"count":2,
			"type":"VEC3"
		},
		{
			"bufferView":11,
			"componentType":5126,
			"count":2,
			"type":"VEC3"
		},
		{
			"bufferView":12,
			"componentType":5126,
			"count":2,
			"type":"VEC4"
		},
		{
			"bufferView":13,
			"componentType":5126,
			"count":2,
			"type":"VEC3"
		},
		{
			"bufferView":14,
			"componentType":5126,
			"count":2,
			"type":"VEC3"
		},
		{
			"bufferView":15,
			"componentType":5126,
			"count":120,
			"max":[
				5
			],
			"min":[
				0.041666666666666664
			],
			"type":"SCALAR"
		},
		{
			"bufferView":16,
			"componentType":5126,
			"count":120,
			"type":"VEC4"
		},
		{
			"bufferView":17,
			"componentType":5126,
			"count":2,
			"type":"VEC3"
		},
		{
			"bufferView":18,
			"componentType":5126,
			"count":2,
			"type":"VEC3"
		},
		{
			"bufferView":19,
			"componentType":5126,
			"count":120,
			"type":"VEC4"
		},
		{
			"bufferView":20,
			"componentType":5126,
			"count":2,
			"type":"VEC3"
		},
		{
			"bufferView":21,
			"componentType":5126,
			"count":2,
			"type":"VEC3"
		},
		{
			"bufferView":22,
			"componentType":5126,
			"count":120,
			"type":"VEC4"
		},
		{
			"bufferView":23,
			"componentType":5126,
			"count":2,
			"type":"VEC3"
		},
		{
			"bufferView":24,
			"componentType":5126,
			"count":2,
			"type":"VEC3"
		},
		{
			"bufferView":25,
			"componentType":5126,
			"count":120,
			"type":"VEC4"
		},
		{
			"bufferView":26,
			"componentType":5126,
			"count":2,
			"type":"VEC3"
		},
		{
			"bufferView":27,
			"componentType":5126,
			"count":2,
			"type":"VEC3"
		},
		{
			"bufferView":28,
			"componentType":5126,
			"count":120,
			"type":"VEC4"
		},
		{
			"bufferView":29,
			"componentType":5126,
			"count":2,
			"type":"VEC3"
		},
		{
			"bufferView":30,
			"componentType":5126,
			"count":2,
			"type":"VEC3"
		},
		{
			"bufferView":31,
			"componentType":5126,
			"count":120,
			"type":"VEC4"
		},
		{
			"bufferView":32,
			"componentType":5126,
			"count":2,
			"type":"VEC3"
		}
	],
	"bufferViews":[
		{
			"buffer":0,
			"byteLength":36096,
			"byteOffset":0,
			"target":34962
		},
		{
			"buffer":0,
			"byteLength":36096,
			"byteOffset":36096,
			"target":34962
		},
		{
			"buffer":0,
			"byteLength":24064,
			"byteOffset":72192,
			"target":34962
		},
		{
			"buffer":0,
			"byteLength":12032,
			"byteOffset":96256,
			"target":34962
		},
		{
			"buffer":0,
			"byteLength":48128,
			"byteOffset":108288,
			"target":34962
		},
		{
			"buffer":0,
			"byteLength":7860,
			"byteOffset":156416,
			"target":34963
		},
		{
			"buffer":0,
			"byteLength":512,
			"byteOffset":164276
		},
		{
			"buffer":0,
			"byteLength":8,
			"byteOffset":164788
		},
		{
			"buffer":0,
			"byteLength":24,
			"byteOffset":164796
		},
		{
			"buffer":0,
			"byteLength":32,
			"byteOffset":164820
		},
		{
			"buffer":0,
			"byteLength":24,
			"byteOffset":164852
		},
		{
			"buffer":0,
			"byteLength":24,
			"byteOffset":164876
		},
		{
			"buffer":0,
			"byteLength":32,
			"byteOffset":164900
		},
		{
			"buffer":0,
			"byteLength":24,
			"byteOffset":164932
		},
		{
			"buffer":0,
			"byteLength":24,
			"byteOffset":164956
		},
		{
			"buffer":0,
			"byteLength":480,
			"byteOffset":164980
		},
		{
			"buffer":0,
			"byteLength":1920,
			"byteOffset":165460
		},
		{
			"buffer":0,
			"byteLength":24,
			"byteOffset":167380
		},
		{
			"buffer":0,
			"byteLength":24,
			"byteOffset":167404
		},
		{
			"buffer":0,
			"byteLength":1920,
			"byteOffset":167428
		},
		{
			"buffer":0,
			"byteLength":24,
			"byteOffset":169348
		},
		{
			"buffer":0,
			"byteLength":24,
			"byteOffset":169372
		},
		{
			"buffer":0,
			"byteLength":1920,
			"byteOffset":169396
		},
		{
			"buffer":0,
			"byteLength":24,
			"byteOffset":171316
		},
		{
			"buffer":0,
			"byteLength":24,
			"byteOffset":171340
		},
		{
			"buffer":0,
			"byteLength":1920,
			"byteOffset":171364
		},
		{
			"buffer":0,
			"byteLength":24,
			"byteOffset":173284
		},
		{
			"buffer":0,
			"byteLength":24,
			"byteOffset":173308
		},
		{
			"buffer":0,
			"byteLength":1920,
			"byteOffset":173332
		},
		{
			"buffer":0,
			"byteLength":24,
			"byteOffset":175252
		},
		{
			"buffer":0,
			"byteLength":24,
			"byteOffset":175276
		},
		{
			"buffer":0,
			"byteLength":1920,
			"byteOffset":175300
		},
		{
			"buffer":0,
			"byteLength":24,
			"byteOffset":177220
		}
	],
	"samplers":[
		{
			"magFilter":9729,
			"minFilter":9987
		}
	],
	"buffers":[
		{
			"byteLength":177244,
			"uri":"scene.bin"
		}
	]
}
