{
	"asset":{
		"generator":"Khronos glTF Blender I/O v4.0.44",
		"version":"2.0"
	},
	"scene":0,
	"scenes":[
		{
			"name":"Scene",
			"nodes":[
				16
			]
		}
	],
	"nodes":[
		{
			"name":"Object_14",
			"rotation":[
				-0.7071069478988647,
				0,
				0,
				0.7071066498756409
			],
			"scale":[
				100,
				100.00000762939453,
				100.00000762939453
			]
		},
		{
			"name":"Tail_03",
			"rotation":[
				5.684341886080802e-14,
				7.105420581337424e-15,
				-3.202539197527368e-21,
				1
			],
			"translation":[
				1.8858033716621948e-21,
				0.13261474668979645,
				2.842170943040401e-14
			]
		},
		{
			"children":[
				1
			],
			"name":"Body.002_02",
			"rotation":[
				-5.1164665393343967e-08,
				-1.4210854715202004e-14,
				2.0154992278820835e-15,
				1
			],
			"scale":[
				1,
				0.9999999403953552,
				1
			],
			"translation":[
				-2.615862469550098e-16,
				0.16089436411857605,
				-1.3805770748831492e-08
			]
		},
		{
			"name":"UnderFin.L_04",
			"rotation":[
				-0.6108253598213196,
				-0.05507707595825195,
				-0.04265584796667099,
				0.7886947393417358
			],
			"translation":[
				0.014325824566185474,
				0.08280331641435623,
				-0.04641570895910263
			]
		},
		{
			"name":"UnderFin.R_05",
			"rotation":[
				-0.6108253598213196,
				0.05507707595825195,
				0.04265584796667099,
				0.7886947393417358
			],
			"translation":[
				-0.014325824566185474,
				0.08280331641435623,
				-0.04641570895910263
			]
		},
		{
			"children":[
				2,
				3,
				4
			],
			"name":"Body.001_01",
			"rotation":[
				2.8971325605198217e-07,
				-4.235164736271502e-21,
				1,
				4.890366743829332e-15
			],
			"translation":[
				-3.1833922789628122e-15,
				3.3362201889985954e-14,
				-4.196586189664231e-09
			]
		},
		{
			"name":"Mouth_06",
			"rotation":[
				0.11898567527532578,
				9.544268095851294e-07,
				4.543218423691542e-08,
				0.9928960204124451
			],
			"scale":[
				1,
				0.9999999403953552,
				1
			],
			"translation":[
				-5.8500653210558085e-09,
				0.051929667592048645,
				-0.01009631808847189
			]
		},
		{
			"children":[
				5,
				6
			],
			"name":"Head_00",
			"rotation":[
				1.8774389332065766e-07,
				0.7071069478988647,
				0.7071065902709961,
				2.2197248483735166e-07
			],
			"translation":[
				-5.846489958827306e-09,
				1.4901161193847656e-08,
				0.12077908962965012
			]
		},
		{
			"children":[
				7
			],
			"name":"_rootJoint",
			"rotation":[
				-8.55714432645982e-09,
				2.4203236748121526e-08,
				-4.1422071054750785e-16,
				1
			]
		},
		{
			"mesh":0,
			"name":"Object_15",
			"skin":0
		},
		{
			"children":[
				0,
				9,
				8
			],
			"name":"Object_5"
		},
		{
			"children":[
				10
			],
			"name":"Armature",
			"rotation":[
				-0.70710688829422,
				0,
				0,
				0.7071066498756409
			],
			"scale":[
				100,
				99.99998474121094,
				99.99998474121094
			]
		},
		{
			"name":"Mugil",
			"rotation":[
				-0.70710688829422,
				0,
				0,
				0.7071066498756409
			],
			"scale":[
				100,
				99.99998474121094,
				99.99998474121094
			]
		},
		{
			"children":[
				11,
				12
			],
			"name":"RootNode"
		},
		{
			"children":[
				13
			],
			"name":"Object_2"
		},
		{
			"children":[
				14
			],
			"name":"Mugil.fbx",
			"rotation":[
				0.70710688829422,
				0,
				0,
				0.7071066498756409
			],
			"scale":[
				0.009999999776482582,
				0.009999999776482582,
				0.009999999776482582
			]
		},
		{
			"children":[
				15
			],
			"name":"Sketchfab_model",
			"rotation":[
				-0.70710688829422,
				0,
				0,
				0.7071066498756409
			]
		}
	],
	"animations":[
		{
			"channels":[
				{
					"sampler":0,
					"target":{
						"node":8,
						"path":"translation"
					}
				},
				{
					"sampler":1,
					"target":{
						"node":8,
						"path":"rotation"
					}
				},
				{
					"sampler":2,
					"target":{
						"node":8,
						"path":"scale"
					}
				},
				{
					"sampler":3,
					"target":{
						"node":7,
						"path":"translation"
					}
				},
				{
					"sampler":4,
					"target":{
						"node":7,
						"path":"rotation"
					}
				},
				{
					"sampler":5,
					"target":{
						"node":7,
						"path":"scale"
					}
				},
				{
					"sampler":6,
					"target":{
						"node":5,
						"path":"translation"
					}
				},
				{
					"sampler":7,
					"target":{
						"node":5,
						"path":"rotation"
					}
				},
				{
					"sampler":8,
					"target":{
						"node":5,
						"path":"scale"
					}
				},
				{
					"sampler":9,
					"target":{
						"node":2,
						"path":"translation"
					}
				},
				{
					"sampler":10,
					"target":{
						"node":2,
						"path":"rotation"
					}
				},
				{
					"sampler":11,
					"target":{
						"node":2,
						"path":"scale"
					}
				},
				{
					"sampler":12,
					"target":{
						"node":1,
						"path":"translation"
					}
				},
				{
					"sampler":13,
					"target":{
						"node":1,
						"path":"rotation"
					}
				},
				{
					"sampler":14,
					"target":{
						"node":1,
						"path":"scale"
					}
				},
				{
					"sampler":15,
					"target":{
						"node":3,
						"path":"translation"
					}
				},
				{
					"sampler":16,
					"target":{
						"node":3,
						"path":"rotation"
					}
				},
				{
					"sampler":17,
					"target":{
						"node":3,
						"path":"scale"
					}
				},
				{
					"sampler":18,
					"target":{
						"node":4,
						"path":"translation"
					}
				},
				{
					"sampler":19,
					"target":{
						"node":4,
						"path":"rotation"
					}
				},
				{
					"sampler":20,
					"target":{
						"node":4,
						"path":"scale"
					}
				},
				{
					"sampler":21,
					"target":{
						"node":6,
						"path":"translation"
					}
				},
				{
					"sampler":22,
					"target":{
						"node":6,
						"path":"rotation"
					}
				},
				{
					"sampler":23,
					"target":{
						"node":6,
						"path":"scale"
					}
				}
			],
			"name":"Scene",
			"samplers":[
				{
					"input":7,
					"interpolation":"STEP",
					"output":8
				},
				{
					"input":7,
					"interpolation":"STEP",
					"output":9
				},
				{
					"input":7,
					"interpolation":"STEP",
					"output":10
				},
				{
					"input":7,
					"interpolation":"STEP",
					"output":11
				},
				{
					"input":7,
					"interpolation":"STEP",
					"output":12
				},
				{
					"input":7,
					"interpolation":"STEP",
					"output":13
				},
				{
					"input":7,
					"interpolation":"LINEAR",
					"output":14
				},
				{
					"input":15,
					"interpolation":"LINEAR",
					"output":16
				},
				{
					"input":7,
					"interpolation":"STEP",
					"output":17
				},
				{
					"input":7,
					"interpolation":"LINEAR",
					"output":18
				},
				{
					"input":15,
					"interpolation":"LINEAR",
					"output":19
				},
				{
					"input":7,
					"interpolation":"LINEAR",
					"output":20
				},
				{
					"input":7,
					"interpolation":"LINEAR",
					"output":21
				},
				{
					"input":15,
					"interpolation":"LINEAR",
					"output":22
				},
				{
					"input":7,
					"interpolation":"STEP",
					"output":23
				},
				{
					"input":7,
					"interpolation":"LINEAR",
					"output":24
				},
				{
					"input":15,
					"interpolation":"LINEAR",
					"output":25
				},
				{
					"input":7,
					"interpolation":"LINEAR",
					"output":26
				},
				{
					"input":7,
					"interpolation":"LINEAR",
					"output":27
				},
				{
					"input":15,
					"interpolation":"LINEAR",
					"output":28
				},
				{
					"input":7,
					"interpolation":"LINEAR",
					"output":29
				},
				{
					"input":7,
					"interpolation":"LINEAR",
					"output":30
				},
				{
					"input":15,
					"interpolation":"LINEAR",
					"output":31
				},
				{
					"input":7,
					"interpolation":"STEP",
					"output":32
				}
			]
		}
	],
	"materials":[
		{
			"doubleSided":true,
			"name":"Mugil_M",
			"pbrMetallicRoughness":{
				"baseColorTexture":{
					"index":0
				},
				"metallicFactor":0.2788580060005188,
				"roughnessFactor":0.22133095562458038
			}
		}
	],
	"meshes":[
		{
			"name":"Mugil_Mugil_M_0",
			"primitives":[
				{
					"attributes":{
						"POSITION":0,
						"NORMAL":1,
						"TEXCOORD_0":2,
						"JOINTS_0":3,
						"WEIGHTS_0":4
					},
					"indices":5,
					"material":0
				}
			]
		}
	],
	"textures":[
		{
			"sampler":0,
			"source":0
		}
	],
	"images":[
		{
			"mimeType":"image/png",
			"name":"Mugil_M_baseColor",
			"uri":"Mugil_M_baseColor.png"
		}
	],
	"skins":[
		{
			"inverseBindMatrices":6,
			"joints":[
				8,
				7,
				5,
				2,
				1,
				3,
				4,
				6
			],
			"name":"Object_5"
		}
	],
	"accessors":[
		{
			"bufferView":0,
			"componentType":5126,
			"count":2952,
			"max":[
				0.08058573305606842,
				0.20783641934394836,
				0.09496782720088959
			],
			"min":[
				-0.08058573305606842,
				-0.30246520042419434,
				-0.0810040757060051
			],
			"type":"VEC3"
		},
		{
			"bufferView":1,
			"componentType":5126,
			"count":2952,
			"type":"VEC3"
		},
		{
			"bufferView":2,
			"componentType":5126,
			"count":2952,
			"type":"VEC2"
		},
		{
			"bufferView":3,
			"componentType":5121,
			"count":2952,
			"type":"VEC4"
		},
		{
			"bufferView":4,
			"componentType":5126,
			"count":2952,
			"type":"VEC4"
		},
		{
			"bufferView":5,
			"componentType":5123,
			"count":3816,
			"type":"SCALAR"
		},
		{
			"bufferView":6,
			"componentType":5126,
			"count":8,
			"type":"MAT4"
		},
		{
			"bufferView":7,
			"componentType":5126,
			"count":2,
			"max":[
				5
			],
			"min":[
				0.041666666666666664
			],
			"type":"SCALAR"
		},
		{
			"bufferView":8,
			"componentType":5126,
			"count":2,
			"type":"VEC3"
		},
		{
			"bufferView":9,
			"componentType":5126,
			"count":2,
			"type":"VEC4"
		},
		{
			"bufferView":10,
			"componentType":5126,
			"count":2,
			"type":"VEC3"
		},
		{
			"bufferView":11,
			"componentType":5126,
			"count":2,
			"type":"VEC3"
		},
		{
			"bufferView":12,
			"componentType":5126,
			"count":2,
			"type":"VEC4"
		},
		{
			"bufferView":13,
			"componentType":5126,
			"count":2,
			"type":"VEC3"
		},
		{
			"bufferView":14,
			"componentType":5126,
			"count":2,
			"type":"VEC3"
		},
		{
			"bufferView":15,
			"componentType":5126,
			"count":120,
			"max":[
				5
			],
			"min":[
				0.041666666666666664
			],
			"type":"SCALAR"
		},
		{
			"bufferView":16,
			"componentType":5126,
			"count":120,
			"type":"VEC4"
		},
		{
			"bufferView":17,
			"componentType":5126,
			"count":2,
			"type":"VEC3"
		},
		{
			"bufferView":18,
			"componentType":5126,
			"count":2,
			"type":"VEC3"
		},
		{
			"bufferView":19,
			"componentType":5126,
			"count":120,
			"type":"VEC4"
		},
		{
			"bufferView":20,
			"componentType":5126,
			"count":2,
			"type":"VEC3"
		},
		{
			"bufferView":21,
			"componentType":5126,
			"count":2,
			"type":"VEC3"
		},
		{
			"bufferView":22,
			"componentType":5126,
			"count":120,
			"type":"VEC4"
		},
		{
			"bufferView":23,
			"componentType":5126,
			"count":2,
			"type":"VEC3"
		},
		{
			"bufferView":24,
			"componentType":5126,
			"count":2,
			"type":"VEC3"
		},
		{
			"bufferView":25,
			"componentType":5126,
			"count":120,
			"type":"VEC4"
		},
		{
			"bufferView":26,
			"componentType":5126,
			"count":2,
			"type":"VEC3"
		},
		{
			"bufferView":27,
			"componentType":5126,
			"count":2,
			"type":"VEC3"
		},
		{
			"bufferView":28,
			"componentType":5126,
			"count":120,
			"type":"VEC4"
		},
		{
			"bufferView":29,
			"componentType":5126,
			"count":2,
			"type":"VEC3"
		},
		{
			"bufferView":30,
			"componentType":5126,
			"count":2,
			"type":"VEC3"
		},
		{
			"bufferView":31,
			"componentType":5126,
			"count":120,
			"type":"VEC4"
		},
		{
			"bufferView":32,
			"componentType":5126,
			"count":2,
			"type":"VEC3"
		}
	],
	"bufferViews":[
		{
			"buffer":0,
			"byteLength":35424,
			"byteOffset":0,
			"target":34962
		},
		{
			"buffer":0,
			"byteLength":35424,
			"byteOffset":35424,
			"target":34962
		},
		{
			"buffer":0,
			"byteLength":23616,
			"byteOffset":70848,
			"target":34962
		},
		{
			"buffer":0,
			"byteLength":11808,
			"byteOffset":94464,
			"target":34962
		},
		{
			"buffer":0,
			"byteLength":47232,
			"byteOffset":106272,
			"target":34962
		},
		{
			"buffer":0,
			"byteLength":7632,
			"byteOffset":153504,
			"target":34963
		},
		{
			"buffer":0,
			"byteLength":512,
			"byteOffset":161136
		},
		{
			"buffer":0,
			"byteLength":8,
			"byteOffset":161648
		},
		{
			"buffer":0,
			"byteLength":24,
			"byteOffset":161656
		},
		{
			"buffer":0,
			"byteLength":32,
			"byteOffset":161680
		},
		{
			"buffer":0,
			"byteLength":24,
			"byteOffset":161712
		},
		{
			"buffer":0,
			"byteLength":24,
			"byteOffset":161736
		},
		{
			"buffer":0,
			"byteLength":32,
			"byteOffset":161760
		},
		{
			"buffer":0,
			"byteLength":24,
			"byteOffset":161792
		},
		{
			"buffer":0,
			"byteLength":24,
			"byteOffset":161816
		},
		{
			"buffer":0,
			"byteLength":480,
			"byteOffset":161840
		},
		{
			"buffer":0,
			"byteLength":1920,
			"byteOffset":162320
		},
		{
			"buffer":0,
			"byteLength":24,
			"byteOffset":164240
		},
		{
			"buffer":0,
			"byteLength":24,
			"byteOffset":164264
		},
		{
			"buffer":0,
			"byteLength":1920,
			"byteOffset":164288
		},
		{
			"buffer":0,
			"byteLength":24,
			"byteOffset":166208
		},
		{
			"buffer":0,
			"byteLength":24,
			"byteOffset":166232
		},
		{
			"buffer":0,
			"byteLength":1920,
			"byteOffset":166256
		},
		{
			"buffer":0,
			"byteLength":24,
			"byteOffset":168176
		},
		{
			"buffer":0,
			"byteLength":24,
			"byteOffset":168200
		},
		{
			"buffer":0,
			"byteLength":1920,
			"byteOffset":168224
		},
		{
			"buffer":0,
			"byteLength":24,
			"byteOffset":170144
		},
		{
			"buffer":0,
			"byteLength":24,
			"byteOffset":170168
		},
		{
			"buffer":0,
			"byteLength":1920,
			"byteOffset":170192
		},
		{
			"buffer":0,
			"byteLength":24,
			"byteOffset":172112
		},
		{
			"buffer":0,
			"byteLength":24,
			"byteOffset":172136
		},
		{
			"buffer":0,
			"byteLength":1920,
			"byteOffset":172160
		},
		{
			"buffer":0,
			"byteLength":24,
			"byteOffset":174080
		}
	],
	"samplers":[
		{
			"magFilter":9729,
			"minFilter":9987
		}
	],
	"buffers":[
		{
			"byteLength":174104,
			"uri":"scene.bin"
		}
	]
}
