{
	"asset":{
		"generator":"Khronos glTF Blender I/O v4.0.44",
		"version":"2.0"
	},
	"scene":0,
	"scenes":[
		{
			"name":"Scene",
			"nodes":[
				16
			]
		}
	],
	"nodes":[
		{
			"name":"Object_14",
			"rotation":[
				-0.70710688829422,
				0,
				0,
				0.7071066498756409
			],
			"scale":[
				100,
				100.00001525878906,
				100.00001525878906
			]
		},
		{
			"name":"Tail_03",
			"rotation":[
				0,
				7.105427357601002e-15,
				-1.6584419962578764e-21,
				1
			],
			"translation":[
				1.6171582923803428e-22,
				0.13261476159095764,
				-3.552713678800501e-15
			]
		},
		{
			"children":[
				1
			],
			"name":"Body.002_02",
			"rotation":[
				-4.810360110241163e-08,
				1.10470162657429e-21,
				-2.2414790631767635e-14,
				1
			],
			"translation":[
				2.909178491299915e-15,
				0.16089442372322083,
				-6.243285888274386e-09
			]
		},
		{
			"name":"UnderFin.L_04",
			"rotation":[
				-0.6108254790306091,
				-0.055077094584703445,
				-0.04265585541725159,
				0.7886946201324463
			],
			"scale":[
				1,
				1,
				1.0000001192092896
			],
			"translation":[
				0.014325829222798347,
				0.08280335366725922,
				-0.04641571640968323
			]
		},
		{
			"name":"UnderFin.R_05",
			"rotation":[
				-0.6108254790306091,
				0.055077094584703445,
				0.04265585541725159,
				0.7886946201324463
			],
			"scale":[
				1,
				1,
				1.0000001192092896
			],
			"translation":[
				-0.014325829222798347,
				0.08280335366725922,
				-0.04641571640968323
			]
		},
		{
			"children":[
				2,
				3,
				4
			],
			"name":"Body.001_01",
			"rotation":[
				-1.7759289505647757e-07,
				7.105431592765738e-15,
				-1,
				1.7085721807632778e-14
			],
			"translation":[
				-2.3715779028641616e-15,
				6.147859998861804e-15,
				-5.089563437365996e-09
			]
		},
		{
			"name":"Mouth_06",
			"rotation":[
				0.11898571252822876,
				8.431003379882895e-07,
				5.8772606337242905e-08,
				0.9928960204124451
			],
			"scale":[
				1,
				0.9999998807907104,
				0.9999999403953552
			],
			"translation":[
				-3.5860718838875982e-09,
				0.05192966386675835,
				-0.010096327401697636
			]
		},
		{
			"children":[
				5,
				6
			],
			"name":"Head_00",
			"rotation":[
				1.1347550810114626e-07,
				0.70710688829422,
				0.7071066498756409,
				1.376787679419067e-07
			],
			"translation":[
				-4.13409351196492e-09,
				7.450580596923828e-09,
				0.12077909708023071
			]
		},
		{
			"children":[
				7
			],
			"name":"_rootJoint",
			"rotation":[
				-8.557137221032463e-09,
				1.7114272665708086e-08,
				-2.928982756881431e-16,
				1
			]
		},
		{
			"mesh":0,
			"name":"Object_15",
			"skin":0
		},
		{
			"children":[
				0,
				9,
				8
			],
			"name":"Object_5"
		},
		{
			"children":[
				10
			],
			"name":"Armature",
			"rotation":[
				-0.70710688829422,
				0,
				0,
				0.7071066498756409
			],
			"scale":[
				100,
				99.99999237060547,
				99.99999237060547
			]
		},
		{
			"name":"Mugil",
			"rotation":[
				-0.70710688829422,
				0,
				0,
				0.7071066498756409
			],
			"scale":[
				100,
				99.99999237060547,
				99.99999237060547
			]
		},
		{
			"children":[
				11,
				12
			],
			"name":"RootNode"
		},
		{
			"children":[
				13
			],
			"name":"Object_2"
		},
		{
			"children":[
				14
			],
			"name":"Mugil.fbx",
			"rotation":[
				0.70710688829422,
				0,
				0,
				0.7071066498756409
			],
			"scale":[
				0.009999999776482582,
				0.010000000707805157,
				0.010000000707805157
			]
		},
		{
			"children":[
				15
			],
			"name":"Sketchfab_model",
			"rotation":[
				-0.70710688829422,
				0,
				0,
				0.7071066498756409
			]
		}
	],
	"animations":[
		{
			"channels":[
				{
					"sampler":0,
					"target":{
						"node":8,
						"path":"translation"
					}
				},
				{
					"sampler":1,
					"target":{
						"node":8,
						"path":"rotation"
					}
				},
				{
					"sampler":2,
					"target":{
						"node":8,
						"path":"scale"
					}
				},
				{
					"sampler":3,
					"target":{
						"node":7,
						"path":"translation"
					}
				},
				{
					"sampler":4,
					"target":{
						"node":7,
						"path":"rotation"
					}
				},
				{
					"sampler":5,
					"target":{
						"node":7,
						"path":"scale"
					}
				},
				{
					"sampler":6,
					"target":{
						"node":5,
						"path":"translation"
					}
				},
				{
					"sampler":7,
					"target":{
						"node":5,
						"path":"rotation"
					}
				},
				{
					"sampler":8,
					"target":{
						"node":5,
						"path":"scale"
					}
				},
				{
					"sampler":9,
					"target":{
						"node":2,
						"path":"translation"
					}
				},
				{
					"sampler":10,
					"target":{
						"node":2,
						"path":"rotation"
					}
				},
				{
					"sampler":11,
					"target":{
						"node":2,
						"path":"scale"
					}
				},
				{
					"sampler":12,
					"target":{
						"node":1,
						"path":"translation"
					}
				},
				{
					"sampler":13,
					"target":{
						"node":1,
						"path":"rotation"
					}
				},
				{
					"sampler":14,
					"target":{
						"node":1,
						"path":"scale"
					}
				},
				{
					"sampler":15,
					"target":{
						"node":3,
						"path":"translation"
					}
				},
				{
					"sampler":16,
					"target":{
						"node":3,
						"path":"rotation"
					}
				},
				{
					"sampler":17,
					"target":{
						"node":3,
						"path":"scale"
					}
				},
				{
					"sampler":18,
					"target":{
						"node":4,
						"path":"translation"
					}
				},
				{
					"sampler":19,
					"target":{
						"node":4,
						"path":"rotation"
					}
				},
				{
					"sampler":20,
					"target":{
						"node":4,
						"path":"scale"
					}
				},
				{
					"sampler":21,
					"target":{
						"node":6,
						"path":"translation"
					}
				},
				{
					"sampler":22,
					"target":{
						"node":6,
						"path":"rotation"
					}
				},
				{
					"sampler":23,
					"target":{
						"node":6,
						"path":"scale"
					}
				}
			],
			"name":"Scene",
			"samplers":[
				{
					"input":7,
					"interpolation":"STEP",
					"output":8
				},
				{
					"input":7,
					"interpolation":"STEP",
					"output":9
				},
				{
					"input":7,
					"interpolation":"STEP",
					"output":10
				},
				{
					"input":11,
					"interpolation":"LINEAR",
					"output":12
				},
				{
					"input":7,
					"interpolation":"STEP",
					"output":13
				},
				{
					"input":7,
					"interpolation":"STEP",
					"output":14
				},
				{
					"input":7,
					"interpolation":"LINEAR",
					"output":15
				},
				{
					"input":11,
					"interpolation":"LINEAR",
					"output":16
				},
				{
					"input":7,
					"interpolation":"STEP",
					"output":17
				},
				{
					"input":7,
					"interpolation":"LINEAR",
					"output":18
				},
				{
					"input":11,
					"interpolation":"LINEAR",
					"output":19
				},
				{
					"input":7,
					"interpolation":"STEP",
					"output":20
				},
				{
					"input":7,
					"interpolation":"LINEAR",
					"output":21
				},
				{
					"input":11,
					"interpolation":"LINEAR",
					"output":22
				},
				{
					"input":7,
					"interpolation":"STEP",
					"output":23
				},
				{
					"input":7,
					"interpolation":"STEP",
					"output":24
				},
				{
					"input":11,
					"interpolation":"LINEAR",
					"output":25
				},
				{
					"input":7,
					"interpolation":"STEP",
					"output":26
				},
				{
					"input":7,
					"interpolation":"STEP",
					"output":27
				},
				{
					"input":11,
					"interpolation":"LINEAR",
					"output":28
				},
				{
					"input":7,
					"interpolation":"STEP",
					"output":29
				},
				{
					"input":7,
					"interpolation":"LINEAR",
					"output":30
				},
				{
					"input":11,
					"interpolation":"LINEAR",
					"output":31
				},
				{
					"input":7,
					"interpolation":"STEP",
					"output":32
				}
			]
		}
	],
	"materials":[
		{
			"doubleSided":true,
			"name":"Mugil_M",
			"pbrMetallicRoughness":{
				"baseColorTexture":{
					"index":0
				},
				"metallicFactor":0.2788580060005188,
				"roughnessFactor":0.22133095562458038
			}
		}
	],
	"meshes":[
		{
			"name":"Mugil_Mugil_M_0",
			"primitives":[
				{
					"attributes":{
						"POSITION":0,
						"NORMAL":1,
						"TEXCOORD_0":2,
						"JOINTS_0":3,
						"WEIGHTS_0":4
					},
					"indices":5,
					"material":0
				}
			]
		}
	],
	"textures":[
		{
			"sampler":0,
			"source":0
		}
	],
	"images":[
		{
			"mimeType":"image/png",
			"name":"Mugil_M_baseColor",
			"uri":"Mugil_M_baseColor.png"
		}
	],
	"skins":[
		{
			"inverseBindMatrices":6,
			"joints":[
				8,
				7,
				5,
				2,
				1,
				3,
				4,
				6
			],
			"name":"Object_5"
		}
	],
	"accessors":[
		{
			"bufferView":0,
			"componentType":5126,
			"count":2950,
			"max":[
				0.08058574050664902,
				0.20783650875091553,
				0.09496785700321198
			],
			"min":[
				-0.08058574050664902,
				-0.3024653494358063,
				-0.08100420981645584
			],
			"type":"VEC3"
		},
		{
			"bufferView":1,
			"componentType":5126,
			"count":2950,
			"type":"VEC3"
		},
		{
			"bufferView":2,
			"componentType":5126,
			"count":2950,
			"type":"VEC2"
		},
		{
			"bufferView":3,
			"componentType":5121,
			"count":2950,
			"type":"VEC4"
		},
		{
			"bufferView":4,
			"componentType":5126,
			"count":2950,
			"type":"VEC4"
		},
		{
			"bufferView":5,
			"componentType":5123,
			"count":3816,
			"type":"SCALAR"
		},
		{
			"bufferView":6,
			"componentType":5126,
			"count":8,
			"type":"MAT4"
		},
		{
			"bufferView":7,
			"componentType":5126,
			"count":2,
			"max":[
				5
			],
			"min":[
				0.041666666666666664
			],
			"type":"SCALAR"
		},
		{
			"bufferView":8,
			"componentType":5126,
			"count":2,
			"type":"VEC3"
		},
		{
			"bufferView":9,
			"componentType":5126,
			"count":2,
			"type":"VEC4"
		},
		{
			"bufferView":10,
			"componentType":5126,
			"count":2,
			"type":"VEC3"
		},
		{
			"bufferView":11,
			"componentType":5126,
			"count":120,
			"max":[
				5
			],
			"min":[
				0.041666666666666664
			],
			"type":"SCALAR"
		},
		{
			"bufferView":12,
			"componentType":5126,
			"count":120,
			"type":"VEC3"
		},
		{
			"bufferView":13,
			"componentType":5126,
			"count":2,
			"type":"VEC4"
		},
		{
			"bufferView":14,
			"componentType":5126,
			"count":2,
			"type":"VEC3"
		},
		{
			"bufferView":15,
			"componentType":5126,
			"count":2,
			"type":"VEC3"
		},
		{
			"bufferView":16,
			"componentType":5126,
			"count":120,
			"type":"VEC4"
		},
		{
			"bufferView":17,
			"componentType":5126,
			"count":2,
			"type":"VEC3"
		},
		{
			"bufferView":18,
			"componentType":5126,
			"count":2,
			"type":"VEC3"
		},
		{
			"bufferView":19,
			"componentType":5126,
			"count":120,
			"type":"VEC4"
		},
		{
			"bufferView":20,
			"componentType":5126,
			"count":2,
			"type":"VEC3"
		},
		{
			"bufferView":21,
			"componentType":5126,
			"count":2,
			"type":"VEC3"
		},
		{
			"bufferView":22,
			"componentType":5126,
			"count":120,
			"type":"VEC4"
		},
		{
			"bufferView":23,
			"componentType":5126,
			"count":2,
			"type":"VEC3"
		},
		{
			"bufferView":24,
			"componentType":5126,
			"count":2,
			"type":"VEC3"
		},
		{
			"bufferView":25,
			"componentType":5126,
			"count":120,
			"type":"VEC4"
		},
		{
			"bufferView":26,
			"componentType":5126,
			"count":2,
			"type":"VEC3"
		},
		{
			"bufferView":27,
			"componentType":5126,
			"count":2,
			"type":"VEC3"
		},
		{
			"bufferView":28,
			"componentType":5126,
			"count":120,
			"type":"VEC4"
		},
		{
			"bufferView":29,
			"componentType":5126,
			"count":2,
			"type":"VEC3"
		},
		{
			"bufferView":30,
			"componentType":5126,
			"count":2,
			"type":"VEC3"
		},
		{
			"bufferView":31,
			"componentType":5126,
			"count":120,
			"type":"VEC4"
		},
		{
			"bufferView":32,
			"componentType":5126,
			"count":2,
			"type":"VEC3"
		}
	],
	"bufferViews":[
		{
			"buffer":0,
			"byteLength":35400,
			"byteOffset":0,
			"target":34962
		},
		{
			"buffer":0,
			"byteLength":35400,
			"byteOffset":35400,
			"target":34962
		},
		{
			"buffer":0,
			"byteLength":23600,
			"byteOffset":70800,
			"target":34962
		},
		{
			"buffer":0,
			"byteLength":11800,
			"byteOffset":94400,
			"target":34962
		},
		{
			"buffer":0,
			"byteLength":47200,
			"byteOffset":106200,
			"target":34962
		},
		{
			"buffer":0,
			"byteLength":7632,
			"byteOffset":153400,
			"target":34963
		},
		{
			"buffer":0,
			"byteLength":512,
			"byteOffset":161032
		},
		{
			"buffer":0,
			"byteLength":8,
			"byteOffset":161544
		},
		{
			"buffer":0,
			"byteLength":24,
			"byteOffset":161552
		},
		{
			"buffer":0,
			"byteLength":32,
			"byteOffset":161576
		},
		{
			"buffer":0,
			"byteLength":24,
			"byteOffset":161608
		},
		{
			"buffer":0,
			"byteLength":480,
			"byteOffset":161632
		},
		{
			"buffer":0,
			"byteLength":1440,
			"byteOffset":162112
		},
		{
			"buffer":0,
			"byteLength":32,
			"byteOffset":163552
		},
		{
			"buffer":0,
			"byteLength":24,
			"byteOffset":163584
		},
		{
			"buffer":0,
			"byteLength":24,
			"byteOffset":163608
		},
		{
			"buffer":0,
			"byteLength":1920,
			"byteOffset":163632
		},
		{
			"buffer":0,
			"byteLength":24,
			"byteOffset":165552
		},
		{
			"buffer":0,
			"byteLength":24,
			"byteOffset":165576
		},
		{
			"buffer":0,
			"byteLength":1920,
			"byteOffset":165600
		},
		{
			"buffer":0,
			"byteLength":24,
			"byteOffset":167520
		},
		{
			"buffer":0,
			"byteLength":24,
			"byteOffset":167544
		},
		{
			"buffer":0,
			"byteLength":1920,
			"byteOffset":167568
		},
		{
			"buffer":0,
			"byteLength":24,
			"byteOffset":169488
		},
		{
			"buffer":0,
			"byteLength":24,
			"byteOffset":169512
		},
		{
			"buffer":0,
			"byteLength":1920,
			"byteOffset":169536
		},
		{
			"buffer":0,
			"byteLength":24,
			"byteOffset":171456
		},
		{
			"buffer":0,
			"byteLength":24,
			"byteOffset":171480
		},
		{
			"buffer":0,
			"byteLength":1920,
			"byteOffset":171504
		},
		{
			"buffer":0,
			"byteLength":24,
			"byteOffset":173424
		},
		{
			"buffer":0,
			"byteLength":24,
			"byteOffset":173448
		},
		{
			"buffer":0,
			"byteLength":1920,
			"byteOffset":173472
		},
		{
			"buffer":0,
			"byteLength":24,
			"byteOffset":175392
		}
	],
	"samplers":[
		{
			"magFilter":9729,
			"minFilter":9987
		}
	],
	"buffers":[
		{
			"byteLength":175416,
			"uri":"scene.bin"
		}
	]
}
