{
	"asset":{
		"generator":"Khronos glTF Blender I/O v4.0.44",
		"version":"2.0"
	},
	"scene":0,
	"scenes":[
		{
			"name":"Scene",
			"nodes":[
				14
			]
		}
	],
	"nodes":[
		{
			"name":"Object_8",
			"rotation":[
				-0.49546733498573303,
				-0.504491925239563,
				-0.504491925239563,
				0.49546733498573303
			],
			"scale":[
				100,
				99.99999237060547,
				100
			]
		},
		{
			"name":"Mouth_02",
			"rotation":[
				8.236715309806186e-09,
				1.1563852986284928e-08,
				-0.07926849275827408,
				0.9968532919883728
			],
			"scale":[
				1,
				1,
				0.9999999403953552
			],
			"translation":[
				-0.3809579610824585,
				0.5664916634559631,
				-3.787328139992496e-08
			]
		},
		{
			"children":[
				1
			],
			"name":"Head_01",
			"rotation":[
				3.63887586729561e-08,
				-5.4846991531798395e-11,
				-0.9993335008621216,
				0.03650464490056038
			],
			"scale":[
				1.000006914138794,
				1,
				1.0000001192092896
			],
			"translation":[
				1.6728197493875996e-08,
				-2.448578584335337e-07,
				6.172331978859802e-09
			]
		},
		{
			"name":"Tail_04",
			"rotation":[
				1.5543122344752192e-15,
				-1.5463053060216225e-09,
				-1.7229467630386353e-08,
				1
			],
			"scale":[
				1,
				0.9999998807907104,
				0.9999999403953552
			],
			"translation":[
				2.075779015342505e-08,
				1.2877001762390137,
				-4.4234127472009277e-10
			]
		},
		{
			"children":[
				3
			],
			"name":"Body.002_03",
			"rotation":[
				8.443548638048526e-10,
				-3.2393501214755815e-08,
				0.05464978888630867,
				0.9985055923461914
			],
			"scale":[
				1,
				1,
				1.0000001192092896
			],
			"translation":[
				5.552293291799515e-09,
				1.2876996994018555,
				2.3936763682286255e-10
			]
		},
		{
			"children":[
				2,
				4
			],
			"name":"Body.001_00",
			"rotation":[
				-0.5326554179191589,
				0.4650571942329407,
				0.4650571644306183,
				0.5326554775238037
			],
			"scale":[
				0.9999998807907104,
				0.9999998211860657,
				1
			],
			"translation":[
				0.12373892217874527,
				0.010465377010405064,
				0.016478093340992928
			]
		},
		{
			"children":[
				5
			],
			"name":"_rootJoint",
			"rotation":[
				-8.557140773746141e-09,
				1.7114274442064925e-08,
				-2.928985139161595e-16,
				1
			],
			"scale":[
				0.9999999403953552,
				1,
				1
			]
		},
		{
			"mesh":0,
			"name":"Object_9",
			"skin":0
		},
		{
			"children":[
				0,
				7,
				6
			],
			"name":"Object_6"
		},
		{
			"children":[
				8
			],
			"name":"Armature",
			"rotation":[
				-0.70710688829422,
				0,
				0,
				0.7071066498756409
			],
			"scale":[
				13.738048553466797,
				13.738046646118164,
				13.738046646118164
			]
		},
		{
			"name":"Flatfish",
			"rotation":[
				-0.4954661726951599,
				-0.5044931173324585,
				-0.5044907927513123,
				0.49546846747398376
			],
			"scale":[
				100,
				100.00000762939453,
				99.99999237060547
			]
		},
		{
			"children":[
				9,
				10
			],
			"name":"RootNode"
		},
		{
			"children":[
				11
			],
			"name":"Object_2"
		},
		{
			"children":[
				12
			],
			"name":"Flatfish.fbx",
			"rotation":[
				0.70710688829422,
				0,
				0,
				0.7071066498756409
			],
			"scale":[
				0.009999999776482582,
				0.010000000707805157,
				0.010000000707805157
			]
		},
		{
			"children":[
				13
			],
			"name":"Sketchfab_model",
			"rotation":[
				-0.70710688829422,
				0,
				0,
				0.7071066498756409
			]
		}
	],
	"animations":[
		{
			"channels":[
				{
					"sampler":0,
					"target":{
						"node":6,
						"path":"translation"
					}
				},
				{
					"sampler":1,
					"target":{
						"node":6,
						"path":"rotation"
					}
				},
				{
					"sampler":2,
					"target":{
						"node":6,
						"path":"scale"
					}
				},
				{
					"sampler":3,
					"target":{
						"node":5,
						"path":"translation"
					}
				},
				{
					"sampler":4,
					"target":{
						"node":5,
						"path":"rotation"
					}
				},
				{
					"sampler":5,
					"target":{
						"node":5,
						"path":"scale"
					}
				},
				{
					"sampler":6,
					"target":{
						"node":2,
						"path":"translation"
					}
				},
				{
					"sampler":7,
					"target":{
						"node":2,
						"path":"rotation"
					}
				},
				{
					"sampler":8,
					"target":{
						"node":2,
						"path":"scale"
					}
				},
				{
					"sampler":9,
					"target":{
						"node":1,
						"path":"translation"
					}
				},
				{
					"sampler":10,
					"target":{
						"node":1,
						"path":"rotation"
					}
				},
				{
					"sampler":11,
					"target":{
						"node":1,
						"path":"scale"
					}
				},
				{
					"sampler":12,
					"target":{
						"node":4,
						"path":"translation"
					}
				},
				{
					"sampler":13,
					"target":{
						"node":4,
						"path":"rotation"
					}
				},
				{
					"sampler":14,
					"target":{
						"node":4,
						"path":"scale"
					}
				},
				{
					"sampler":15,
					"target":{
						"node":3,
						"path":"translation"
					}
				},
				{
					"sampler":16,
					"target":{
						"node":3,
						"path":"rotation"
					}
				},
				{
					"sampler":17,
					"target":{
						"node":3,
						"path":"scale"
					}
				}
			],
			"name":"Scene",
			"samplers":[
				{
					"input":7,
					"interpolation":"STEP",
					"output":8
				},
				{
					"input":7,
					"interpolation":"STEP",
					"output":9
				},
				{
					"input":7,
					"interpolation":"STEP",
					"output":10
				},
				{
					"input":7,
					"interpolation":"STEP",
					"output":11
				},
				{
					"input":7,
					"interpolation":"STEP",
					"output":12
				},
				{
					"input":7,
					"interpolation":"STEP",
					"output":13
				},
				{
					"input":7,
					"interpolation":"STEP",
					"output":14
				},
				{
					"input":15,
					"interpolation":"LINEAR",
					"output":16
				},
				{
					"input":7,
					"interpolation":"STEP",
					"output":17
				},
				{
					"input":7,
					"interpolation":"STEP",
					"output":18
				},
				{
					"input":7,
					"interpolation":"STEP",
					"output":19
				},
				{
					"input":7,
					"interpolation":"STEP",
					"output":20
				},
				{
					"input":7,
					"interpolation":"STEP",
					"output":21
				},
				{
					"input":15,
					"interpolation":"LINEAR",
					"output":22
				},
				{
					"input":7,
					"interpolation":"STEP",
					"output":23
				},
				{
					"input":7,
					"interpolation":"STEP",
					"output":24
				},
				{
					"input":15,
					"interpolation":"LINEAR",
					"output":25
				},
				{
					"input":7,
					"interpolation":"STEP",
					"output":26
				}
			]
		}
	],
	"materials":[
		{
			"doubleSided":true,
			"name":"Flatfish_M",
			"pbrMetallicRoughness":{
				"baseColorTexture":{
					"index":0
				},
				"metallicFactor":0.5653350353240967,
				"roughnessFactor":0.5139032602310181
			}
		}
	],
	"meshes":[
		{
			"name":"Flatfish_Flatfish_M_0",
			"primitives":[
				{
					"attributes":{
						"POSITION":0,
						"NORMAL":1,
						"TEXCOORD_0":2,
						"JOINTS_0":3,
						"WEIGHTS_0":4
					},
					"indices":5,
					"material":0
				}
			]
		}
	],
	"textures":[
		{
			"sampler":0,
			"source":0
		}
	],
	"images":[
		{
			"mimeType":"image/png",
			"name":"Flatfish_M_baseColor",
			"uri":"Flatfish_M_baseColor.png"
		}
	],
	"skins":[
		{
			"inverseBindMatrices":6,
			"joints":[
				6,
				5,
				2,
				1,
				4,
				3
			],
			"name":"Object_6"
		}
	],
	"accessors":[
		{
			"bufferView":0,
			"componentType":5126,
			"count":2804,
			"max":[
				0.17847613990306854,
				0.15630804002285004,
				0.03979160636663437
			],
			"min":[
				-0.5161446928977966,
				-0.17334051430225372,
				-0.061593323945999146
			],
			"type":"VEC3"
		},
		{
			"bufferView":1,
			"componentType":5126,
			"count":2804,
			"type":"VEC3"
		},
		{
			"bufferView":2,
			"componentType":5126,
			"count":2804,
			"type":"VEC2"
		},
		{
			"bufferView":3,
			"componentType":5121,
			"count":2804,
			"type":"VEC4"
		},
		{
			"bufferView":4,
			"componentType":5126,
			"count":2804,
			"type":"VEC4"
		},
		{
			"bufferView":5,
			"componentType":5123,
			"count":3660,
			"type":"SCALAR"
		},
		{
			"bufferView":6,
			"componentType":5126,
			"count":6,
			"type":"MAT4"
		},
		{
			"bufferView":7,
			"componentType":5126,
			"count":2,
			"max":[
				2.3333333333333335
			],
			"min":[
				0.041666666666666664
			],
			"type":"SCALAR"
		},
		{
			"bufferView":8,
			"componentType":5126,
			"count":2,
			"type":"VEC3"
		},
		{
			"bufferView":9,
			"componentType":5126,
			"count":2,
			"type":"VEC4"
		},
		{
			"bufferView":10,
			"componentType":5126,
			"count":2,
			"type":"VEC3"
		},
		{
			"bufferView":11,
			"componentType":5126,
			"count":2,
			"type":"VEC3"
		},
		{
			"bufferView":12,
			"componentType":5126,
			"count":2,
			"type":"VEC4"
		},
		{
			"bufferView":13,
			"componentType":5126,
			"count":2,
			"type":"VEC3"
		},
		{
			"bufferView":14,
			"componentType":5126,
			"count":2,
			"type":"VEC3"
		},
		{
			"bufferView":15,
			"componentType":5126,
			"count":56,
			"max":[
				2.3333333333333335
			],
			"min":[
				0.041666666666666664
			],
			"type":"SCALAR"
		},
		{
			"bufferView":16,
			"componentType":5126,
			"count":56,
			"type":"VEC4"
		},
		{
			"bufferView":17,
			"componentType":5126,
			"count":2,
			"type":"VEC3"
		},
		{
			"bufferView":18,
			"componentType":5126,
			"count":2,
			"type":"VEC3"
		},
		{
			"bufferView":19,
			"componentType":5126,
			"count":2,
			"type":"VEC4"
		},
		{
			"bufferView":20,
			"componentType":5126,
			"count":2,
			"type":"VEC3"
		},
		{
			"bufferView":21,
			"componentType":5126,
			"count":2,
			"type":"VEC3"
		},
		{
			"bufferView":22,
			"componentType":5126,
			"count":56,
			"type":"VEC4"
		},
		{
			"bufferView":23,
			"componentType":5126,
			"count":2,
			"type":"VEC3"
		},
		{
			"bufferView":24,
			"componentType":5126,
			"count":2,
			"type":"VEC3"
		},
		{
			"bufferView":25,
			"componentType":5126,
			"count":56,
			"type":"VEC4"
		},
		{
			"bufferView":26,
			"componentType":5126,
			"count":2,
			"type":"VEC3"
		}
	],
	"bufferViews":[
		{
			"buffer":0,
			"byteLength":33648,
			"byteOffset":0,
			"target":34962
		},
		{
			"buffer":0,
			"byteLength":33648,
			"byteOffset":33648,
			"target":34962
		},
		{
			"buffer":0,
			"byteLength":22432,
			"byteOffset":67296,
			"target":34962
		},
		{
			"buffer":0,
			"byteLength":11216,
			"byteOffset":89728,
			"target":34962
		},
		{
			"buffer":0,
			"byteLength":44864,
			"byteOffset":100944,
			"target":34962
		},
		{
			"buffer":0,
			"byteLength":7320,
			"byteOffset":145808,
			"target":34963
		},
		{
			"buffer":0,
			"byteLength":384,
			"byteOffset":153128
		},
		{
			"buffer":0,
			"byteLength":8,
			"byteOffset":153512
		},
		{
			"buffer":0,
			"byteLength":24,
			"byteOffset":153520
		},
		{
			"buffer":0,
			"byteLength":32,
			"byteOffset":153544
		},
		{
			"buffer":0,
			"byteLength":24,
			"byteOffset":153576
		},
		{
			"buffer":0,
			"byteLength":24,
			"byteOffset":153600
		},
		{
			"buffer":0,
			"byteLength":32,
			"byteOffset":153624
		},
		{
			"buffer":0,
			"byteLength":24,
			"byteOffset":153656
		},
		{
			"buffer":0,
			"byteLength":24,
			"byteOffset":153680
		},
		{
			"buffer":0,
			"byteLength":224,
			"byteOffset":153704
		},
		{
			"buffer":0,
			"byteLength":896,
			"byteOffset":153928
		},
		{
			"buffer":0,
			"byteLength":24,
			"byteOffset":154824
		},
		{
			"buffer":0,
			"byteLength":24,
			"byteOffset":154848
		},
		{
			"buffer":0,
			"byteLength":32,
			"byteOffset":154872
		},
		{
			"buffer":0,
			"byteLength":24,
			"byteOffset":154904
		},
		{
			"buffer":0,
			"byteLength":24,
			"byteOffset":154928
		},
		{
			"buffer":0,
			"byteLength":896,
			"byteOffset":154952
		},
		{
			"buffer":0,
			"byteLength":24,
			"byteOffset":155848
		},
		{
			"buffer":0,
			"byteLength":24,
			"byteOffset":155872
		},
		{
			"buffer":0,
			"byteLength":896,
			"byteOffset":155896
		},
		{
			"buffer":0,
			"byteLength":24,
			"byteOffset":156792
		}
	],
	"samplers":[
		{
			"magFilter":9729,
			"minFilter":9987
		}
	],
	"buffers":[
		{
			"byteLength":156816,
			"uri":"scene.bin"
		}
	]
}
